<svg xmlns="http://www.w3.org/2000/svg" width="40" height="40" fill="none">
  <path fill="#fff" fill-rule="evenodd" d="M0 20a20 20 0 1 1 40 0 20 20 0 0 1-40 0ZM20 9.33c-2.9 0-3.26.02-4.4.07a7.83 7.83 0 0 0-2.59.5 5.48 5.48 0 0 0-3.12 3.12 7.8 7.8 0 0 0-.5 2.58c-.04 1.14-.06 1.5-.06 4.4 0 2.9.02 3.26.07 4.4a7.7 7.7 0 0 0 .5 2.59 5.48 5.48 0 0 0 3.12 3.12c.67.26 1.45.44 2.58.5 1.14.04 1.5.06 4.4.06 2.9 0 3.26-.02 4.4-.07a7.84 7.84 0 0 0 2.59-.5 5.48 5.48 0 0 0 3.12-3.12 7.9 7.9 0 0 0 .5-2.58c.04-1.14.06-1.5.06-4.4 0-2.9-.02-3.26-.07-4.4a7.9 7.9 0 0 0-.5-2.59 5.48 5.48 0 0 0-3.12-3.12 7.85 7.85 0 0 0-2.58-.5c-1.14-.04-1.5-.06-4.4-.06Z" clip-rule="evenodd"/>
  <path fill="#fff" fill-rule="evenodd" d="M19.04 11.25H20c2.85 0 3.19.01 4.31.07a5.9 5.9 0 0 1 1.98.36 3.49 3.49 0 0 1 2.03 2.03c.14.37.32.94.36 1.98.05 1.12.07 1.46.07 4.3 0 2.85-.02 3.2-.07 4.32a5.9 5.9 0 0 1-.36 1.98 3.49 3.49 0 0 1-2.03 2.02 5.8 5.8 0 0 1-1.98.37c-1.12.05-1.46.06-4.3.06-2.86 0-3.2-.01-4.32-.06a5.92 5.92 0 0 1-1.98-.37 3.3 3.3 0 0 1-1.23-.8 3.3 3.3 0 0 1-.8-1.23 5.9 5.9 0 0 1-.36-1.98 74.46 74.46 0 0 1-.06-4.3c0-2.85 0-3.19.06-4.31a5.9 5.9 0 0 1 .37-1.99c.19-.5.42-.85.8-1.22.37-.38.72-.6 1.22-.8.38-.15.94-.32 1.98-.37a59.1 59.1 0 0 1 3.35-.06Zm6.66 1.78a1.28 1.28 0 1 0 0 2.56 1.28 1.28 0 0 0 0-2.56Zm-5.7 1.5a5.48 5.48 0 1 0 0 10.95 5.48 5.48 0 0 0 0-10.96Z" clip-rule="evenodd"/>
  <path fill="#fff" fill-rule="evenodd" d="M20 16.45a3.56 3.56 0 1 1 0 7.1 3.56 3.56 0 0 1 0-7.1Z" clip-rule="evenodd"/>
</svg>