<svg xmlns="http://www.w3.org/2000/svg" width="40" height="40" fill="none">
  <path fill="#fff" d="M20 0a20 20 0 1 0 0 40 20 20 0 0 0 0-40Zm10.65 26.79h-2.53a1.83 1.83 0 0 1-1.44-.69c-.76-.95-2.26-2.65-3.83-3.38a.6.6 0 0 0-.85.55v2.5a1.01 1.01 0 0 1-1.02 1.02h-1.17c-1.53 0-4.81-.93-7.43-4.74a25.89 25.89 0 0 1-3.8-7.82.8.8 0 0 1 .77-1.02h2.57a1.19 1.19 0 0 1 1.14.85c.47 1.6 1.71 5.04 3.9 6.76a.45.45 0 0 0 .73-.36v-4.02c0-.8-.35-1.59-.88-2.21a.61.61 0 0 1 .46-1.02h3.96a.77.77 0 0 1 .77.77v5.42a.43.43 0 0 0 .67.34 8.09 8.09 0 0 0 1.92-2.14c.72-1.08 1.6-2.86 2.04-3.79a1.05 1.05 0 0 1 .95-.6h2.8a.69.69 0 0 1 .62 1 31.49 31.49 0 0 1-3.38 5.54 1.08 1.08 0 0 0 .13 1.52c.84.72 2.16 2.06 3.58 4.28a.8.8 0 0 1-.68 1.24Z"/>
</svg>