<svg width="20" height="20" viewBox="0 0 20 20" fill="none" xmlns="http://www.w3.org/2000/svg">
<g clip-path="url(#clip0_1087_500)">
<path d="M13.6675 9.33366C13.8521 9.33366 14.0008 9.48232 14.0008 9.66699V15.667C14.0008 15.8517 13.8521 16.0003 13.6675 16.0003C13.4828 16.0003 13.3341 15.8517 13.3341 15.667V9.66699C13.3341 9.48232 13.4828 9.33366 13.6675 9.33366ZM9.66747 9.33366C9.85213 9.33366 10.0008 9.48232 10.0008 9.66699V15.667C10.0008 15.8517 9.85213 16.0003 9.66747 16.0003C9.4828 16.0003 9.33413 15.8517 9.33413 15.667V9.66699C9.33413 9.48232 9.4828 9.33366 9.66747 9.33366ZM5.66747 9.33366C5.85213 9.33366 6.0008 9.48232 6.0008 9.66699V15.667C6.0008 15.8517 5.85213 16.0003 5.66747 16.0003C5.4828 16.0003 5.33413 15.8517 5.33413 15.667V9.66699C5.33413 9.48232 5.4828 9.33366 5.66747 9.33366ZM12.3515 0.666992C12.4381 0.666992 12.5201 0.705659 12.5801 0.766992L16.5735 4.76699C16.8681 5.06366 16.4001 5.53699 16.1021 5.23899L12.1088 1.23899C11.8941 1.02699 12.0121 0.666992 12.3515 0.666992ZM6.98347 0.666992C6.8968 0.666992 6.8148 0.705659 6.7548 0.766992L2.76147 4.76699C2.4668 5.06366 2.9348 5.53699 3.2328 5.23899L7.22613 1.23899C7.44213 1.02699 7.32347 0.666992 6.98413 0.666992H6.98347ZM1.0008 6.00033C0.7248 6.00033 0.469467 6.10699 0.2768 6.28833C0.0834669 6.46966 -0.0471998 6.75499 0.0061335 7.05766L2.00613 18.391C2.04747 18.6243 2.14147 18.851 2.30813 19.031C2.4748 19.2097 2.72547 19.3337 3.00147 19.3337H16.3348C16.6108 19.3337 16.8615 19.2097 17.0281 19.0303C17.1948 18.8503 17.2881 18.625 17.3295 18.3903L19.3295 7.05699C19.3828 6.75499 19.2515 6.47033 19.0588 6.28833C18.8648 6.10699 18.6101 6.00033 18.3341 6.00033H1.0008ZM1.0008 6.66699H18.3341C18.6675 6.66699 18.7101 6.80366 18.6728 6.94299L16.6728 18.2763C16.5928 18.5723 16.5195 18.667 16.3341 18.667H3.0008C2.75747 18.667 2.72747 18.5203 2.66213 18.2763L0.662133 6.94299C0.6208 6.72299 0.834134 6.66699 1.0008 6.66699Z" fill="white"/>
</g>
<defs>
<clipPath id="clip0_1087_500">
<rect width="20" height="20" fill="white"/>
</clipPath>
</defs>
</svg>
