<svg width="20" height="20" viewBox="0 0 20 20" fill="none" xmlns="http://www.w3.org/2000/svg">
<path d="M19.9871 5.93915C19.9871 5.9333 19.9871 5.92744 19.9807 5.92744C19.9807 5.91574 19.9742 5.90989 19.9742 5.89819C19.9742 5.89233 19.9678 5.88063 19.9678 5.87478C19.9678 5.86893 19.9613 5.86308 19.9613 5.85723C19.9484 5.82797 19.9355 5.80456 19.9162 5.78116L15.724 0.193096C15.6337 0.0702167 15.4853 0 15.3241 0H11.2222H8.77781H4.67591C4.51467 0 4.36633 0.0702167 4.27604 0.193096L0.0838441 5.78116C0.0644955 5.80456 0.0515962 5.83382 0.0386971 5.85723C0.0386971 5.86308 0.0322477 5.86893 0.0322477 5.87478C0.0257981 5.88063 0.0257982 5.89233 0.0257982 5.89819C0.0257982 5.90989 0.0193488 5.91574 0.0193488 5.92744C0.0193488 5.93329 0.0193484 5.93915 0.0128989 5.93915C0.00644934 5.9684 0 5.99766 0 6.02692V19.5611C0 19.8011 0.219284 20 0.483715 20H19.5163C19.7807 20 20 19.8011 20 19.5611V6.02692C19.9936 5.99766 19.9936 5.9684 19.9871 5.93915ZM18.594 5.58806H12.3444L11.7575 0.877706H15.0597L18.594 5.58806ZM8.55853 6.46577H11.4286V9.68403L10.2741 8.94675C10.1903 8.89409 10.0935 8.86483 9.99678 8.86483C9.90003 8.86483 9.80329 8.89409 9.71945 8.94675L8.56498 9.68403V6.46577H8.55853ZM10.7836 0.877706L11.3705 5.58806H8.61658L9.20348 0.877706H10.7836ZM4.93389 0.877706H8.23605L7.64915 5.58806H1.39955L4.93389 0.877706ZM19.0261 19.1223H0.96743V6.46577H7.59755V10.5266C7.59755 10.6905 7.70074 10.8426 7.85553 10.9187C8.01677 10.9947 8.21026 10.983 8.35859 10.8894L9.99678 9.84201L11.635 10.8894C11.7188 10.9421 11.8155 10.9713 11.9123 10.9713C11.9897 10.9713 12.0671 10.9538 12.138 10.9245C12.2993 10.8484 12.396 10.6963 12.396 10.5325V6.47162H19.0261V19.1223Z" fill="black"/>
<path d="M6.45002 14.3535H3.01887C2.75444 14.3535 2.53516 14.5525 2.53516 14.7924C2.53516 15.0323 2.75444 15.2312 3.01887 15.2312H6.45002C6.71445 15.2312 6.93374 15.0323 6.93374 14.7924C6.93374 14.5525 6.71445 14.3535 6.45002 14.3535Z" fill="black"/>
<path d="M4.73445 16.1973H3.01887C2.75444 16.1973 2.53516 16.3962 2.53516 16.6361C2.53516 16.876 2.75444 17.075 3.01887 17.075H4.73445C4.99888 17.075 5.21816 16.876 5.21816 16.6361C5.21816 16.3962 4.99888 16.1973 4.73445 16.1973Z" fill="black"/>
</svg>
