<svg width="20" height="20" viewBox="0 0 20 20" fill="none" xmlns="http://www.w3.org/2000/svg">
<g clip-path="url(#clip0_1093_50)">
<path fill-rule="evenodd" clip-rule="evenodd" d="M2.5 0C1.83696 0 1.20107 0.263392 0.732233 0.732233C0.263392 1.20107 0 1.83696 0 2.5L0 17.5C0 18.163 0.263392 18.7989 0.732233 19.2678C1.20107 19.7366 1.83696 20 2.5 20H17.5C18.163 20 18.7989 19.7366 19.2678 19.2678C19.7366 18.7989 20 18.163 20 17.5V2.5C20 1.83696 19.7366 1.20107 19.2678 0.732233C18.7989 0.263392 18.163 0 17.5 0L2.5 0ZM3.125 6.25C2.95924 6.25 2.80027 6.31585 2.68306 6.43306C2.56585 6.55027 2.5 6.70924 2.5 6.875C2.5 7.04076 2.56585 7.19973 2.68306 7.31694C2.80027 7.43415 2.95924 7.5 3.125 7.5H16.875C17.0408 7.5 17.1997 7.43415 17.3169 7.31694C17.4342 7.19973 17.5 7.04076 17.5 6.875C17.5 6.70924 17.4342 6.55027 17.3169 6.43306C17.1997 6.31585 17.0408 6.25 16.875 6.25H3.125ZM5 10.625C5 10.4592 5.06585 10.3003 5.18306 10.1831C5.30027 10.0658 5.45924 10 5.625 10H14.375C14.5408 10 14.6997 10.0658 14.8169 10.1831C14.9342 10.3003 15 10.4592 15 10.625C15 10.7908 14.9342 10.9497 14.8169 11.0669C14.6997 11.1842 14.5408 11.25 14.375 11.25H5.625C5.45924 11.25 5.30027 11.1842 5.18306 11.0669C5.06585 10.9497 5 10.7908 5 10.625ZM7.5 14.375C7.5 14.2092 7.56585 14.0503 7.68306 13.9331C7.80027 13.8158 7.95924 13.75 8.125 13.75H11.875C12.0408 13.75 12.1997 13.8158 12.3169 13.9331C12.4342 14.0503 12.5 14.2092 12.5 14.375C12.5 14.5408 12.4342 14.6997 12.3169 14.8169C12.1997 14.9342 12.0408 15 11.875 15H8.125C7.95924 15 7.80027 14.9342 7.68306 14.8169C7.56585 14.6997 7.5 14.5408 7.5 14.375Z" fill="white"/>
</g>
<defs>
<clipPath id="clip0_1093_50">
<rect width="20" height="20" fill="white"/>
</clipPath>
</defs>
</svg>
