<svg width="20" height="20" viewBox="0 0 20 20" fill="none" xmlns="http://www.w3.org/2000/svg">
<path d="M15 0.59082C12.9169 0.59082 11.3406 1.81334 10 3.09082C8.72252 1.7352 7.08314 0.59082 5 0.59082C2.06624 0.59082 0 3.1133 0 5.86396C0 7.33958 0.604379 8.40272 1.26624 9.40082L9.03686 18.7171C9.90938 19.6402 10.0738 19.6402 10.9462 18.7171L18.7343 9.40082C19.5125 8.40272 20 7.33958 20 5.86396C20 3.11334 17.9337 0.59082 15 0.59082ZM17.5 9.14209L10 18.0908L2.5 9.1052C1.60314 7.85834 1.25 7.01709 1.25 5.86396C1.25 3.7152 2.78438 1.78082 5 1.76268C6.82252 1.74768 8.88814 3.60892 10 5.01206C11.0825 3.65768 13.1775 1.76268 15 1.76268C17.1569 1.76268 18.75 3.7152 18.75 5.86396C18.75 7.01709 18.4706 7.92082 17.5 9.14209Z" fill="white"/>
</svg>
