<svg width="30" height="30" viewBox="0 0 30 30" fill="none" xmlns="http://www.w3.org/2000/svg">
<path d="M15 26.3325C22.2412 26.3325 28.1662 20.4062 28.1662 13.1662C28.1662 5.92375 22.2412 0 15 0C7.75874 0 1.83374 5.92375 1.83374 13.1662C1.92749 20.4062 7.85249 26.3325 15 26.3325ZM15 0.94C21.7712 0.94 27.3187 6.4875 27.3187 13.2587C27.3187 20.03 21.7712 25.5787 15 25.5787C8.22874 25.485 2.77374 19.935 2.77374 13.165C2.77078 11.5587 3.085 9.96752 3.69839 8.4829C4.31179 6.99827 5.21227 5.64937 6.34819 4.51356C7.48411 3.37776 8.83311 2.47741 10.3178 1.86417C11.8025 1.25093 13.3936 0.936871 15 0.94V0.94Z" fill="black"/>
<path d="M15.1874 18.1498C14.9049 18.1498 14.7174 18.0548 14.5287 18.0548C14.3399 18.0548 14.2462 17.9623 14.1524 17.8686C14.0587 17.7736 14.0587 17.6811 13.9637 17.4923V14.6698L14.8112 14.8573H15.2812C15.6574 14.8573 16.0337 14.7636 16.4099 14.5761C16.7862 14.4811 17.0674 14.1998 17.3499 14.0111C17.6324 13.7286 17.8199 13.4461 18.0087 13.1648C18.1949 12.7886 18.1949 12.4123 18.1949 11.9411C18.1949 11.4711 18.1012 11.0011 17.9124 10.7186C17.7391 10.3758 17.4793 10.0841 17.1587 9.87234C16.9477 9.7602 16.7278 9.66571 16.5012 9.58984C16.3137 9.49609 16.0324 9.49609 15.7487 9.40234C15.4674 9.40234 15.0912 9.30859 14.8099 9.30859H11.2374V9.77859C11.4249 9.77859 11.6137 9.87359 11.8024 9.87359C11.8962 9.87359 11.9899 9.96734 12.0849 10.0611C12.1787 10.1548 12.1787 10.2486 12.1787 10.4373V17.5848C12.1787 17.7736 12.0849 17.8686 12.0849 17.9623C11.9912 18.0548 11.8974 18.1498 11.8024 18.1498C11.6137 18.1498 11.4262 18.2436 11.2374 18.2436V18.6198H15.3762V18.1498H15.1874ZM13.9649 10.3436V10.0611C13.9649 9.96609 14.0599 9.96609 14.0599 9.87359C14.0599 9.87359 14.1537 9.77859 14.2474 9.77859H14.5299C14.7174 9.77859 14.9062 9.77859 15.0949 9.87359C15.2824 9.96734 15.4712 10.0611 15.5649 10.2498C15.7524 10.4373 15.8474 10.6261 15.9412 10.9073C16.0362 11.1898 16.1299 11.5648 16.1299 11.9423C16.1299 12.3186 16.1299 12.6948 16.0362 12.9773C15.9589 13.204 15.864 13.4242 15.7524 13.6361C15.6599 13.8236 15.4712 13.9173 15.3774 14.0123C15.2837 14.1061 15.0949 14.1998 15.0012 14.1998C14.9062 14.1998 14.8137 14.2936 14.7187 14.2936H14.3424C14.2487 14.2936 14.1549 14.1998 14.0599 14.1998V10.3436H13.9649V10.3436ZM26.9437 29.0586H3.14993C2.96243 29.0586 2.77368 29.2461 2.77368 29.5286C2.77368 29.8111 2.96243 29.9986 3.24368 29.9986H27.0374C27.2249 29.9986 27.5074 29.8111 27.5074 29.5286C27.5074 29.2461 27.1312 29.0586 26.9437 29.0586Z" fill="black"/>
</svg>
