<svg width="30" height="30" viewBox="0 0 30 30" fill="none" xmlns="http://www.w3.org/2000/svg">
<path d="M29.6024 24.5589H1.01742C0.828669 24.5589 0.732419 24.4664 0.638669 24.3714L0.0711689 23.6139C0.0244497 23.5268 0 23.4296 0 23.3308C0 23.232 0.0244497 23.1347 0.0711689 23.0477L6.12867 13.4877C6.22367 13.3927 6.31742 13.2977 6.50742 13.2977H29.1299V6.38766H15.6874C15.4037 6.38766 15.2149 6.19766 15.2149 5.91391C15.2149 5.63016 15.4037 5.44141 15.6874 5.44141H29.5074C29.7924 5.44141 29.9799 5.63016 29.9799 5.91391V24.0877C30.0762 24.2764 29.7924 24.5589 29.6024 24.5589ZM1.20617 23.6139H29.1287V14.2439H6.79117L1.01742 23.3314L1.20617 23.6139Z" fill="black"/>
<path d="M12.7538 17.3672C13.2556 17.3688 13.7363 17.5689 14.0911 17.9237C14.4459 18.2785 14.6459 18.7592 14.6476 19.2609C14.6459 19.7627 14.4459 20.2434 14.0911 20.5982C13.7363 20.953 13.2556 21.153 12.7538 21.1547C12.2523 21.1527 11.7719 20.9525 11.4174 20.5978C11.0629 20.243 10.863 19.7625 10.8613 19.2609C10.9563 18.2184 11.8076 17.3672 12.7538 17.3672ZM19.8538 17.3672C20.3556 17.3688 20.8363 17.5689 21.1911 17.9237C21.5459 18.2785 21.7459 18.7592 21.7476 19.2609C21.7476 20.3009 20.8938 21.1547 19.8538 21.1547C19.3521 21.153 18.8714 20.953 18.5166 20.5982C18.1618 20.2434 17.9617 19.7627 17.9601 19.2609C18.0538 18.2184 18.8126 17.3672 19.8538 17.3672Z" fill="black"/>
</svg>
