<svg width="30" height="30" viewBox="0 0 30 30" fill="none" xmlns="http://www.w3.org/2000/svg">
<g clip-path="url(#clip0_909_3187)">
<path d="M29.69 30.0361H0.38C0.28145 30.0299 0.188519 29.9881 0.118583 29.9184C0.048646 29.8487 0.00649138 29.7559 0 29.6573L0 0.344844C0 0.156094 0.18875 -0.0351562 0.38 -0.0351562H29.595C29.785 -0.0351562 29.975 0.154844 29.975 0.344844V29.5611C30.07 29.8473 29.88 30.0361 29.69 30.0361ZM0.85375 29.1823H29.3112V0.724844H0.85375V29.1823Z" fill="black"/>
<path d="M8.91738 27.0027C8.81848 26.9959 8.72537 26.9536 8.65528 26.8835C8.58518 26.8134 8.54286 26.7203 8.53613 26.6214V3.57016C8.53613 3.38141 8.72613 3.19141 8.91738 3.19141C9.10613 3.19141 9.29613 3.38016 9.29613 3.57016V26.6202C9.39113 26.8114 9.19988 27.0027 8.91738 27.0027ZM15.0824 27.0027C14.9835 26.9959 14.8904 26.9536 14.8203 26.8835C14.7502 26.8134 14.7079 26.7203 14.7011 26.6214V3.57016C14.7011 3.38141 14.8911 3.19141 15.0824 3.19141C15.2711 3.19141 15.4611 3.38016 15.4611 3.57016V26.6202C15.4611 26.8114 15.2724 27.0027 15.0824 27.0027ZM21.3424 27.0027C21.2435 26.9959 21.1504 26.9536 21.0803 26.8835C21.0102 26.8134 20.9679 26.7203 20.9611 26.6214V3.57016C20.9611 3.38141 21.1511 3.19141 21.3424 3.19141C21.5311 3.19141 21.7224 3.38016 21.7224 3.57016V26.6202C21.8174 26.8114 21.6274 27.0027 21.3424 27.0027Z" fill="black"/>
</g>
<defs>
<clipPath id="clip0_909_3187">
<rect width="30" height="30" fill="white"/>
</clipPath>
</defs>
</svg>
