<svg width="30" height="30" viewBox="0 0 30 30" fill="none" xmlns="http://www.w3.org/2000/svg">
<g clip-path="url(#clip0_909_3177)">
<path d="M29.5975 0.0117188H0.38C0.281432 0.018439 0.188633 0.0606322 0.118773 0.130492C0.0489134 0.200352 0.0067202 0.293151 0 0.391719L0 29.633C0 29.8217 0.19 30.0117 0.38 30.0117H29.5975C29.6957 30.005 29.7882 29.9629 29.8578 29.8933C29.9275 29.8237 29.9695 29.7312 29.9763 29.633V0.486719C30.0713 0.201719 29.8812 0.0117188 29.5975 0.0117188ZM28.6475 0.866719C27.6987 9.60047 21.06 13.778 15.2738 13.873H15.0838C9.2025 13.873 2.7525 9.88547 1.51875 0.866719H28.6475ZM0.855 29.2517V1.91047C2.56125 10.7392 9.0125 14.633 15.0825 14.633H15.3675C21.06 14.538 27.5113 10.7392 29.2175 2.67047V29.253H0.855V29.2517Z" fill="black"/>
</g>
<defs>
<clipPath id="clip0_909_3177">
<rect width="30" height="30" fill="white"/>
</clipPath>
</defs>
</svg>
