<svg width="30" height="30" viewBox="0 0 30 30" fill="none" xmlns="http://www.w3.org/2000/svg">
<path d="M29.0061 27.2563C29.052 27.2038 29.0773 27.1365 29.0773 27.0669C29.0773 26.9972 29.052 26.9299 29.0061 26.8775L20.6786 10.7887L28.8186 2.65C29.0061 2.46125 29.0061 2.27125 28.8186 2.0825C28.6286 1.89375 28.4374 1.89375 28.2499 2.0825L20.2999 10.0312L15.1886 0.18875C15.0936 0.09375 14.9999 0 14.8099 0C14.7149 0 14.5261 0.09375 14.4311 0.18875L9.41489 10.1262L1.65489 2.17625C1.46614 1.9875 1.27614 1.9875 1.08739 2.17625C1.04056 2.2635 1.01606 2.36098 1.01606 2.46C1.01606 2.55902 1.04056 2.6565 1.08739 2.74375L9.13114 10.7887L0.992393 26.8775C0.897393 26.9725 0.897393 27.1613 0.992393 27.2563C1.08739 27.3512 1.18114 27.445 1.27614 27.445H3.07489L1.18239 29.3388C0.993643 29.5263 0.993643 29.7175 1.18239 29.9062C1.27614 30 1.37114 30 1.46614 30C1.56114 30 1.65489 30 1.75114 29.9062L4.21114 27.445H25.7886L28.2499 29.9062C28.3449 30 28.4374 30 28.5324 30C28.6274 30 28.7224 30 28.8186 29.9062C29.0061 29.7175 29.0061 29.5263 28.8186 29.3388L26.9236 27.445H28.7224C28.8186 27.445 28.9111 27.3512 29.0061 27.2563ZM14.9049 1.23L19.8274 10.6938L14.9999 15.5212L10.1724 10.5988L14.9049 1.23ZM1.93989 26.6875L9.69989 11.3562L14.4324 16.0888L3.83239 26.6875H1.93989ZM4.96739 26.6875L14.9999 16.5625L25.0311 26.6875H4.96739ZM26.0711 26.6875L15.4724 16.0888L20.1086 11.4513L27.9624 26.7825H26.0699V26.6875H26.0711Z" fill="black"/>
</svg>
