<svg width="30" height="30" viewBox="0 0 30 30" fill="none" xmlns="http://www.w3.org/2000/svg">
<path d="M15 30C6.7925 30 0 23.3025 0 15C0 6.7925 6.7925 0 15 0C23.2075 0 30 6.7925 30 15C30 23.3025 23.3025 30 15 30ZM15 1.0375C13.1653 1.03355 11.3479 1.392 9.65211 2.09228C7.95631 2.79256 6.41553 3.82088 5.1182 5.1182C3.82088 6.41553 2.79256 7.95631 2.09228 9.65211C1.392 11.3479 1.03355 13.1653 1.0375 15C1.0375 22.7362 7.26375 29.0563 15 29.0563C22.7362 29.0563 29.0563 22.7362 29.0563 15C29.0563 7.265 22.7362 1.0375 15 1.0375Z" fill="black"/>
<path d="M10.7075 9.67188V10.2381C10.9913 10.2381 11.1788 10.3319 11.3663 10.3319C11.555 10.3319 11.65 10.4256 11.7438 10.5194C11.84 10.6144 11.84 10.8044 11.9338 10.9919V19.1069C11.9306 19.2818 11.8635 19.4494 11.745 19.5781C11.6513 19.6731 11.5575 19.7669 11.3675 19.7669C11.18 19.7669 10.9913 19.8606 10.7088 19.8606V20.3319H15.6138V19.8606C15.2363 19.8606 15.0475 19.7669 14.8588 19.7669C14.67 19.6731 14.4813 19.6731 14.3863 19.5781C14.2925 19.4844 14.1988 19.2956 14.1988 19.1069V15.8994L15.2363 16.1819H15.8975C16.3688 16.0881 16.8413 15.9944 17.2188 15.8994C17.5963 15.7106 17.9738 15.5219 18.2563 15.2381C18.54 14.9556 18.8213 14.6731 19.0113 14.2006C19.1988 13.8231 19.295 13.3506 19.295 12.7856C19.295 12.2194 19.2 11.7481 18.9175 11.3706C18.7288 10.9919 18.3513 10.6156 17.9738 10.3331C17.7825 10.1431 17.5 10.0494 17.2163 9.95562C16.9325 9.86062 16.6513 9.76687 16.2738 9.76687C15.895 9.76687 15.5188 9.67312 15.0463 9.67312H10.7075V9.67188ZM14.1025 10.9919V10.6144C14.1025 10.5206 14.1975 10.4269 14.1975 10.4269C14.2913 10.4269 14.2913 10.3331 14.385 10.3331H14.7638C14.9513 10.3331 15.235 10.3331 15.4238 10.4269C15.6113 10.5206 15.895 10.6144 16.0838 10.8044C16.2725 10.9919 16.4613 11.2756 16.555 11.5594C16.65 11.8431 16.7438 12.3144 16.7438 12.7856C16.7438 13.2581 16.65 13.6344 16.555 13.9169C16.4613 14.2006 16.3663 14.4831 16.1775 14.6719C15.9888 14.8594 15.8938 15.0494 15.7063 15.1431C15.5175 15.2369 15.4225 15.3319 15.2338 15.3319C15.045 15.3319 14.95 15.4256 14.8563 15.4256H14.3838C14.29 15.4256 14.1 15.3319 14.0075 15.3319V10.9919H14.1025Z" fill="black"/>
</svg>
