<svg width="30" height="30" viewBox="0 0 30 30" fill="none" xmlns="http://www.w3.org/2000/svg">
<g clip-path="url(#clip0_909_3125)">
<path d="M24.1613 23.745C26.4244 21.4076 27.6848 18.2785 27.6737 15.025C27.6737 11.7075 26.345 8.57875 24.1613 6.3025L29.7625 0.71125C29.9513 0.52125 29.9513 0.33125 29.7625 0.1425C29.5725 -0.0475 29.3825 -0.0475 29.1925 0.1425L23.5925 5.735C21.3138 3.64875 18.275 2.4175 14.9525 2.4175C11.63 2.4175 8.49625 3.74625 6.3125 5.83125L0.7125 0.2375C0.5225 0.04875 0.3325 0.04875 0.1425 0.2375C-0.0475 0.4275 -0.0475 0.6175 0.1425 0.80625L5.74375 6.39875C3.655 8.67375 2.32625 11.7075 2.32625 15.025C2.33347 18.275 3.59124 21.3975 5.83875 23.745L0.2375 29.3387C0.0475 29.5275 0.0475 29.7175 0.2375 29.9088C0.3325 30.0012 0.4275 30.0012 0.5225 30.0012C0.6175 30.0012 0.7125 30.0012 0.8075 29.9088L6.4075 24.3138C8.68625 26.4 11.7238 27.725 15.0475 27.725C18.3713 27.725 21.4075 26.3988 23.6862 24.3138L29.2875 29.9088C29.3838 30.0012 29.4775 30.0012 29.5725 30.0012C29.6675 30.0012 29.7625 30.0012 29.8587 29.9088C30.0475 29.7175 30.0475 29.5275 29.8587 29.3387L24.1613 23.745ZM26.82 15.0263C26.82 18.1538 25.5863 20.9963 23.5925 23.1775L15.5225 15.0263L23.5925 6.87375C25.5863 9.05375 26.82 11.8975 26.82 15.0263ZM14.9525 3.17625C18.085 3.17625 20.8387 4.40875 23.0225 6.30375L14.9525 14.455L6.8825 6.39875C9.05766 4.32623 11.9481 3.17204 14.9525 3.17625ZM3.085 15.0263C3.085 11.8975 4.31875 9.055 6.3125 6.96875L14.3825 15.0263L6.3125 23.0825C4.23857 20.9134 3.08232 18.0273 3.085 15.0263ZM14.9525 26.8737C11.82 26.8737 9.0675 25.6425 6.8825 23.745L14.8563 15.69L22.9263 23.745C20.9325 25.6425 18.085 26.8737 14.9525 26.8737Z" fill="black"/>
</g>
<defs>
<clipPath id="clip0_909_3125">
<rect width="30" height="30" fill="white"/>
</clipPath>
</defs>
</svg>
