<svg width="30" height="30" viewBox="0 0 30 30" fill="none" xmlns="http://www.w3.org/2000/svg">
<path d="M30 29.62V0.38C30 0.285 30 0.19 29.9062 0.09375C29.8125 0 29.7163 0 29.6213 0H0.4725C0.37875 0 0.28375 0 0.18875 0.09375C0.09375 0.18875 0 0.285 0 0.38V29.6213C0 29.8113 0.18875 30 0.37875 30H29.5263C29.6213 30 29.7163 30 29.8125 29.9062C29.9062 29.8112 29.9062 29.8113 29.9062 29.7163C30 29.715 30 29.62 30 29.62ZM0.85125 1.32875L7.57125 8.07C5.8675 9.87375 4.82625 12.3412 4.82625 15C4.82625 17.6588 5.8675 20.0312 7.57125 21.93L0.85125 28.6712V1.32875ZM14.4788 15L8.2325 21.2663C6.71875 19.5575 5.7725 17.3725 5.7725 15C5.7725 12.5312 6.71875 10.3475 8.23375 8.64L14.4788 15ZM8.70625 8.07C10.41 6.55125 12.5863 5.60125 14.9525 5.60125C17.4137 5.60125 19.59 6.55125 21.2938 8.07L15.0475 14.4312L8.70625 8.07ZM15.0475 15.57L21.2938 21.8363C19.59 23.3538 17.4137 24.305 14.9525 24.305C12.6307 24.3147 10.3941 23.4307 8.70625 21.8363L15.0475 15.57ZM15.615 15L21.955 8.64C23.47 10.3475 24.4163 12.5312 24.4163 15C24.4163 17.4688 23.47 19.6525 21.955 21.2663L15.615 15ZM21.8612 7.5C19.9954 5.73219 17.5228 4.74707 14.9525 4.7475C12.3025 4.7475 9.9375 5.79125 8.045 7.5L1.42 0.75875H28.5812L21.8612 7.5ZM8.13875 22.5C10.0044 24.2681 12.4771 25.2533 15.0475 25.2525C17.6963 25.2525 20.0625 24.21 21.955 22.5L28.675 29.2412H1.42L8.13875 22.5ZM22.4288 21.93C24.1325 20.1263 25.1737 17.6588 25.1737 15C25.1737 12.3412 24.1325 9.96875 22.4288 8.07L29.1475 1.32875V28.575L22.4288 21.93Z" fill="black"/>
</svg>
