<svg width="30" height="30" viewBox="0 0 30 30" fill="none" xmlns="http://www.w3.org/2000/svg">
<g clip-path="url(#clip0_909_3164)">
<path d="M29.5264 24.6144H1.01762C0.828865 24.6144 0.732615 24.5219 0.638865 24.4256L0.070115 23.6694C0.0232865 23.5821 -0.0012207 23.4846 -0.0012207 23.3856C-0.0012207 23.2866 0.0232865 23.1891 0.070115 23.1019L6.13137 13.5344C6.22637 13.4394 6.32012 13.3456 6.51012 13.3456H29.0514V6.52562H15.6976C15.4139 6.52562 15.2251 6.33563 15.2251 6.05188C15.2251 5.76688 15.4151 5.57812 15.6976 5.57812H29.5264C29.8114 5.57812 30.0001 5.76813 30.0001 6.05188V24.1419C30.0001 24.4256 29.8114 24.6144 29.5264 24.6144ZM1.20762 23.6694H29.0526V14.3869H6.70136L0.922615 23.3844L1.20762 23.6694Z" fill="black"/>
</g>
<defs>
<clipPath id="clip0_909_3164">
<rect width="30" height="30" fill="white"/>
</clipPath>
</defs>
</svg>
