<svg width="30" height="30" viewBox="0 0 30 30" fill="none" xmlns="http://www.w3.org/2000/svg">
<g clip-path="url(#clip0_909_3201)">
<path d="M29.68 6.06854C29.4913 5.97354 29.2063 6.06854 29.1125 6.25729L28.355 7.96229C26.745 6.54229 25.135 5.87854 23.62 6.16354C22.1988 6.35354 20.8738 7.29979 19.7375 9.00479C18.6013 7.20604 16.8013 6.16354 14.9075 6.16354C13.1088 6.16354 11.4975 7.20479 10.4563 8.90979C9.31879 7.29979 7.99254 6.25729 6.47754 6.06854C4.96254 5.87979 3.25754 6.54229 1.55254 8.05729L0.795037 6.25729C0.700037 6.06854 0.416287 5.97354 0.226287 6.06854C0.0375372 6.16354 -0.0574628 6.35354 0.0375372 6.54229L6.28754 21.2223C6.38254 21.411 6.47754 21.5073 6.66629 21.5073H23.43C23.6188 21.5073 23.7138 21.4123 23.8088 21.2223L29.965 6.54229C30.0588 6.35354 29.965 6.16354 29.68 6.06854ZM23.1463 20.6535H6.95129L1.83629 8.81479C3.44629 7.39354 4.96129 6.73104 6.38254 6.92104C7.80379 7.10979 9.03504 8.15229 10.1713 10.046C10.265 10.141 10.36 10.2348 10.55 10.2348C10.7388 10.2348 10.8338 10.1398 10.9288 10.046C11.7813 8.24729 13.2975 7.10979 15.0013 7.10979C16.8 7.01479 18.5063 8.15104 19.4525 10.046C19.5475 10.141 19.6413 10.2348 19.8325 10.2348C20.02 10.2348 20.1163 10.1398 20.2113 10.046C21.2538 8.24729 22.4838 7.20479 23.905 7.01604C25.2313 6.82604 26.6513 7.48979 28.26 8.81479L23.1463 20.6535Z" fill="black"/>
<path d="M22.5788 11.3711C21.8213 11.3711 21.2525 11.9398 21.2525 12.6973C21.2525 13.4548 21.82 14.0236 22.5788 14.0236C23.335 14.0236 23.905 13.4548 23.905 12.6973C23.9038 12.0336 23.335 11.3711 22.5788 11.3711ZM22.5788 13.2648C22.4311 13.2552 22.292 13.1921 22.1874 13.0875C22.0827 12.9829 22.0197 12.8438 22.01 12.6961C22.01 12.4111 22.1988 12.1273 22.5788 12.1273C22.8625 12.1273 23.1463 12.3161 23.1463 12.6961C23.1463 13.0761 22.8613 13.2648 22.5788 13.2648ZM12.255 15.5386C13.1075 15.1598 13.5813 14.4973 13.5813 13.7398C13.5813 12.8873 12.9188 11.9411 11.4975 11.9411C10.74 11.9411 9.98251 12.2248 9.60376 12.5098L9.88876 13.2673C10.1725 13.0786 10.7413 12.7936 11.3088 12.7936C12.2563 12.7936 12.635 13.3623 12.635 13.9298C12.635 14.7823 11.6888 15.1611 11.025 15.1611H10.455V15.9186H11.0238C11.97 15.9186 12.9175 16.3911 12.9175 17.4336C12.9175 18.0011 12.5388 18.8548 11.3075 18.8548C10.645 18.8548 9.98126 18.5686 9.69751 18.3811L9.31876 19.1373C9.69751 19.4223 10.36 19.6111 11.2125 19.6111C12.9175 19.6111 13.865 18.5686 13.865 17.4336C13.865 16.3898 13.2013 15.7273 12.255 15.5386ZM17.085 12.0336C15.57 12.0336 14.5275 13.3598 14.5275 15.8211C14.5275 18.2836 15.4738 19.6098 16.895 19.6098C18.5063 19.6098 19.4525 18.1886 19.4525 15.7273C19.4525 13.3598 18.6 12.0336 17.085 12.0336ZM16.99 18.8536C16.1375 18.8536 15.475 17.8111 15.475 15.8223C15.475 13.8336 16.1388 12.7923 16.99 12.7923C18.0325 12.7923 18.5063 14.0236 18.5063 15.8223C18.5063 17.6223 18.0325 18.8536 16.99 18.8536ZM23.335 23.2086H6.95126C6.66751 23.2086 6.47876 23.3986 6.47876 23.5873C6.47876 23.7773 6.66751 23.9673 6.85751 23.9673H23.24C23.3387 23.9609 23.4316 23.9188 23.5015 23.8489C23.5714 23.779 23.6135 23.686 23.62 23.5873C23.62 23.3998 23.525 23.2086 23.335 23.2086Z" fill="black"/>
</g>
<defs>
<clipPath id="clip0_909_3201">
<rect width="30" height="30" fill="white"/>
</clipPath>
</defs>
</svg>
