<svg width="30" height="30" viewBox="0 0 30 30" fill="none" xmlns="http://www.w3.org/2000/svg">
<path d="M29.6024 24.5589H1.01742C0.828669 24.5589 0.732419 24.4664 0.638669 24.3714L0.0711689 23.6139C0.0244497 23.5268 0 23.4296 0 23.3308C0 23.232 0.0244497 23.1347 0.0711689 23.0477L6.12867 13.4877C6.22367 13.3927 6.31742 13.2977 6.50742 13.2977H29.1299V6.38766H15.6874C15.4037 6.38766 15.2149 6.19766 15.2149 5.91391C15.2149 5.63016 15.4037 5.44141 15.6874 5.44141H29.5074C29.7924 5.44141 29.9799 5.63016 29.9799 5.91391V24.0877C30.0762 24.2764 29.7924 24.5589 29.6024 24.5589ZM1.20617 23.6139H29.1287V14.2439H6.79117L1.01742 23.3314L1.20617 23.6139Z" fill="black"/>
<path d="M9.53633 17.3672C10.0381 17.3688 10.5188 17.5689 10.8736 17.9237C11.2284 18.2785 11.4284 18.7592 11.4301 19.2609C11.4284 19.7627 11.2284 20.2434 10.8736 20.5982C10.5188 20.953 10.0381 21.153 9.53633 21.1547C9.03458 21.153 8.55386 20.953 8.19907 20.5982C7.84427 20.2434 7.64423 19.7627 7.64258 19.2609C7.64423 18.7592 7.84427 18.2785 8.19907 17.9237C8.55386 17.5689 9.03458 17.3688 9.53633 17.3672ZM16.5401 17.3672C17.0418 17.3688 17.5226 17.5689 17.8773 17.9237C18.2321 18.2785 18.4322 18.7592 18.4338 19.2609C18.4338 20.3009 17.5801 21.1547 16.5401 21.1547C16.0383 21.153 15.5576 20.953 15.2028 20.5982C14.848 20.2434 14.648 19.7627 14.6463 19.2609C14.7413 18.2184 15.5951 17.3672 16.5401 17.3672ZM23.6401 17.3672C24.1418 17.3688 24.6226 17.5689 24.9773 17.9237C25.3321 18.2785 25.5322 18.7592 25.5338 19.2609C25.5338 20.3009 24.6801 21.1547 23.6401 21.1547C23.1383 21.153 22.6576 20.953 22.3028 20.5982C21.948 20.2434 21.748 19.7627 21.7463 19.2609C21.8413 18.2184 22.5988 17.3672 23.6401 17.3672Z" fill="black"/>
</svg>
