<svg width="30" height="30" viewBox="0 0 30 30" fill="none" xmlns="http://www.w3.org/2000/svg">
<path d="M10.7537 14.4048C12.4887 13.6748 13.4012 12.3961 13.4012 10.9348C13.4012 9.19984 12.1238 7.46484 9.2925 7.46484C7.74 7.46484 6.37 8.01234 5.5475 8.55984L6.095 10.0211C6.735 9.56484 7.83125 9.01609 8.92625 9.01609C10.7525 9.01609 11.4825 10.0211 11.4825 11.2086C11.4825 12.9436 9.65625 13.6748 8.28625 13.6748H7.19125V15.1361H8.2875C10.205 15.1361 11.94 16.0486 12.0312 18.0573C12.0312 19.2436 11.3012 20.8886 8.74375 20.8886C7.37375 20.8886 6.095 20.3411 5.5475 19.9773L5 21.5286C5.73 21.9848 7.1 22.5336 8.745 22.5336C12.215 22.5336 13.95 20.5261 13.95 18.1511C14.0413 16.0486 12.58 14.7698 10.7537 14.4048ZM20.2513 7.46484C17.3288 7.46484 15.2275 10.1136 15.2275 15.0448C15.2275 19.8848 17.145 22.5336 19.9775 22.5336C23.1737 22.5336 25 19.7948 25 14.8623C25 10.2048 23.265 7.46484 20.2513 7.46484ZM20.0688 20.9798C18.3325 20.9798 17.1462 18.8798 17.1462 15.0436C17.1462 11.1161 18.425 9.01609 20.0688 9.01609C22.0775 9.01609 22.9912 11.3911 22.9912 14.9523C22.9912 18.6048 22.0775 20.9798 20.0688 20.9798Z" fill="black"/>
</svg>
