<svg width="30" height="30" viewBox="0 0 30 30" fill="none" xmlns="http://www.w3.org/2000/svg">
<g clip-path="url(#clip0_909_3093)">
<path d="M29.68 7.29847C29.4913 7.20472 29.2063 7.29847 29.1125 7.48722L28.355 9.19222C26.745 7.77097 25.135 7.10847 23.62 7.39347C22.1988 7.58222 20.8738 8.52972 19.7375 10.2335C18.6013 8.43472 16.8013 7.39347 14.9075 7.39347C13.1088 7.39347 11.4975 8.43472 10.4563 10.1397C9.31879 8.52972 7.99254 7.48722 6.47754 7.29847C4.96254 7.10847 3.25754 7.77222 1.55254 9.28847L0.795037 7.48847C0.700037 7.29847 0.416287 7.20472 0.226287 7.29847C0.0375372 7.39347 -0.0574628 7.58222 0.0375372 7.77222L6.28754 22.4522C6.38254 22.641 6.47754 22.736 6.66629 22.736H23.43C23.6188 22.736 23.7138 22.6422 23.8088 22.4522L29.965 7.77222C30.0588 7.58222 29.965 7.39347 29.68 7.29847ZM23.1463 21.8835H6.95129L1.83629 10.0447C3.44629 8.62347 4.96254 7.96097 6.38254 8.15097C7.80379 8.33972 9.03504 9.38097 10.1713 11.276C10.265 11.371 10.36 11.466 10.55 11.466C10.7388 11.466 10.8338 11.371 10.9288 11.2772C11.7813 9.47847 13.2975 8.34097 15.0013 8.34097C16.8 8.24597 18.5063 9.38222 19.4525 11.2772C19.5475 11.371 19.6413 11.466 19.8325 11.466C20.02 11.466 20.1163 11.371 20.2113 11.2772C21.2538 9.47847 22.4838 8.43597 23.905 8.24597C25.2313 8.05722 26.6513 8.71972 28.26 10.0447L23.1463 21.8835Z" fill="black"/>
</g>
<defs>
<clipPath id="clip0_909_3093">
<rect width="30" height="30" fill="white"/>
</clipPath>
</defs>
</svg>
