<svg width="30" height="30" viewBox="0 0 30 30" fill="none" xmlns="http://www.w3.org/2000/svg">
<g clip-path="url(#clip0_909_3172)">
<path d="M30.0001 29.1219L15.2713 0.610625C15.1763 0.515625 15.0826 0.421875 14.8926 0.421875C14.7038 0.421875 14.6101 0.516875 14.5151 0.610625L0.0700684 29.2181C-0.0236816 29.3106 -0.0236816 29.5006 0.0700684 29.5944C0.165068 29.6894 0.258818 29.7831 0.447568 29.7831H29.6201C29.8101 29.7831 29.9038 29.6894 30.0001 29.5944V29.1219ZM1.10882 28.9344L14.8926 1.64812L28.9601 28.9344H1.10882Z" fill="black"/>
<path d="M20.8413 26.1953C20.5576 26.1953 20.3688 26.1028 20.1801 26.1028C19.9913 26.1028 19.8963 26.0066 19.8038 25.9141C19.7076 25.8178 19.7076 25.7253 19.6151 25.5353V19.3053V18.5503C19.6151 18.3616 19.7076 18.2653 19.8038 18.1716C19.8963 18.0791 19.9901 17.9828 20.1801 17.9828C20.3701 17.9828 20.5588 17.8903 20.8413 17.8903V17.4178H16.4988V17.8903C16.7826 17.8903 16.9713 17.9828 17.1576 17.9828C17.3463 17.9828 17.4426 18.0791 17.5363 18.1716C17.6288 18.2653 17.6288 18.3603 17.7251 18.5503V25.5353C17.7251 25.7241 17.6288 25.8178 17.5363 25.9141C17.4426 26.0066 17.3476 26.1028 17.1576 26.1028C16.9713 26.1028 16.7813 26.1953 16.4988 26.1953V26.6678H20.8413V26.1953ZM13.8538 17.2266C13.5701 17.2266 13.1938 17.1328 12.9101 17.1328C12.0601 17.1328 11.3051 17.2266 10.6438 17.5091C9.98259 17.7928 9.41634 18.0778 8.94509 18.5491C8.47384 19.0216 8.09509 19.4941 7.81134 20.1528C7.52884 20.7203 7.43384 21.4753 7.43384 22.1366C7.43384 22.6091 7.52884 23.0803 7.62259 23.4578C7.71759 23.9291 7.90634 24.3078 8.18884 24.6866C8.47259 25.0628 8.75509 25.4416 9.13259 25.7241C9.51009 26.0066 9.98259 26.2891 10.5488 26.4791C11.1151 26.6691 11.7763 26.7628 12.4376 26.7628H13.1926C13.4751 26.7628 13.6638 26.6691 13.9476 26.6691C14.1363 26.6691 14.4188 26.5753 14.6088 26.5753C14.7976 26.5753 14.8913 26.4803 14.9863 26.4803C15.0813 26.3866 15.0813 26.1966 15.1751 26.0078C15.2701 25.8191 15.2701 25.6316 15.3638 25.4428C15.4588 25.2541 15.4588 25.0641 15.5526 24.8753C15.6476 24.6891 15.6476 24.4991 15.7401 24.3091L15.1738 24.1203C14.9851 24.5928 14.7013 24.9716 14.5126 25.2541C14.2288 25.5378 13.9463 25.8191 13.6626 26.0091C13.3788 26.1991 13.0013 26.2928 12.6238 26.2928C12.1526 26.2928 11.7751 26.1991 11.3963 26.0091C11.0188 25.8203 10.7363 25.5378 10.4526 25.0653C10.1688 24.6891 9.98134 24.2166 9.79259 23.6491C9.60384 23.0828 9.60384 22.5153 9.60384 21.8553C9.60384 21.3841 9.60384 21.0041 9.69759 20.6266C9.79259 20.2503 9.88634 19.8716 10.0751 19.4966C10.2638 19.1178 10.4526 18.8353 10.6413 18.5516C10.8301 18.2666 11.1126 18.0803 11.3963 17.9841C11.6801 17.7953 12.0576 17.7953 12.3401 17.7953C12.7176 17.7953 13.0013 17.8916 13.2838 17.9841C13.5676 18.0803 13.8501 18.3628 14.1338 18.6453C14.4163 18.9278 14.6051 19.4003 14.7938 19.8716L15.3601 19.7778C15.3601 19.4953 15.2663 19.3066 15.2663 19.0228C15.2663 18.7366 15.1713 18.5503 15.1713 18.2666C15.1713 17.9828 15.0776 17.7941 15.0776 17.5116C14.9826 17.5116 14.6988 17.4191 14.5101 17.4191C14.4213 17.3191 14.2326 17.3191 13.8538 17.2266Z" fill="black"/>
</g>
<defs>
<clipPath id="clip0_909_3172">
<rect width="30" height="30" fill="white"/>
</clipPath>
</defs>
</svg>
