<svg width="30" height="30" viewBox="0 0 30 30" fill="none" xmlns="http://www.w3.org/2000/svg">
<path d="M14.9525 30C6.71875 30 0 23.2075 0 15C0 6.7925 6.71875 0 14.9525 0C23.1862 0 30 6.7925 30 15C30 23.2075 23.28 30 14.9525 30ZM14.9525 1.0375C7.1925 1.0375 0.94625 7.265 0.94625 15C0.94625 22.7362 7.28625 28.9625 14.9525 28.9625C22.7138 28.9625 28.9575 22.6425 28.9575 15C28.9575 7.265 22.7138 1.0375 14.9525 1.0375Z" fill="black"/>
<path d="M19.4488 12.1217C19.4488 11.8392 19.3538 11.6505 19.3538 11.3667C19.3538 11.083 19.3538 10.8942 19.2588 10.6117V10.0455V9.66797H10.5513V10.2342C10.835 10.2342 11.1188 10.328 11.3075 10.328C11.4963 10.328 11.6875 10.4242 11.7825 10.5192C11.8763 10.613 11.9713 10.803 11.9713 10.9905C11.9713 11.178 12.0663 11.463 11.9713 11.8405V19.0105C11.9713 19.198 11.8763 19.3867 11.7825 19.4817C11.6875 19.5767 11.4975 19.6705 11.3088 19.6705C11.12 19.6705 10.8363 19.7642 10.5525 19.7642V20.3317H16.2313V19.7642C15.8525 19.7642 15.5688 19.6705 15.3788 19.6705C15.1888 19.6705 15 19.5755 14.905 19.4805C14.7163 19.293 14.62 19.1967 14.62 19.0092C14.62 18.8205 14.525 18.5367 14.62 18.1592V15.4242H17.0813C17.2688 15.4242 17.4588 15.5192 17.6488 15.613C17.7425 15.7067 17.8363 15.8005 17.9325 15.9905C18.0275 16.178 18.0275 16.368 18.1225 16.6492H18.7838V13.443H18.1225C18.0275 13.7267 18.0275 13.9142 17.9325 14.103C17.8375 14.2917 17.7438 14.3867 17.6488 14.4805C17.5538 14.5755 17.3638 14.5755 17.0813 14.6692H14.62V10.9905C14.62 10.803 14.62 10.7067 14.715 10.613C14.715 10.5192 14.8088 10.5192 14.9038 10.4242H17.0813C17.365 10.4242 17.5538 10.5192 17.7425 10.613C17.9313 10.7067 18.0275 10.8017 18.215 10.8955C18.405 11.0842 18.5 11.2742 18.595 11.463C18.6888 11.6505 18.7838 11.9342 18.8788 12.2167L19.4488 12.1217Z" fill="black"/>
</svg>
