<svg width="30" height="30" viewBox="0 0 30 30" fill="none" xmlns="http://www.w3.org/2000/svg">
<path d="M29.6024 24.5589H1.01742C0.828669 24.5589 0.732419 24.4664 0.638669 24.3714L0.0711689 23.6139C0.0244497 23.5268 0 23.4296 0 23.3308C0 23.232 0.0244497 23.1347 0.0711689 23.0477L6.12867 13.4877C6.22367 13.3927 6.31742 13.2977 6.50742 13.2977H29.1299V6.38766H15.6874C15.4037 6.38766 15.2149 6.19766 15.2149 5.91391C15.2149 5.63016 15.4037 5.44141 15.6874 5.44141H29.5074C29.7924 5.44141 29.9799 5.63016 29.9799 5.91391V24.0877C30.0762 24.2764 29.7924 24.5589 29.6024 24.5589ZM1.20617 23.6139H29.1287V14.2439H6.79117L1.01742 23.3314L1.20617 23.6139Z" fill="black"/>
<path d="M16.54 17.3672C17.0417 17.3688 17.5225 17.5689 17.8773 17.9237C18.232 18.2785 18.4321 18.7592 18.4337 19.2609C18.4337 20.3009 17.58 21.1547 16.54 21.1547C16.0382 21.153 15.5575 20.953 15.2027 20.5982C14.8479 20.2434 14.6479 19.7627 14.6462 19.2609C14.7412 18.2184 15.595 17.3672 16.54 17.3672Z" fill="black"/>
</svg>
