<svg width="30" height="30" viewBox="0 0 30 30" fill="none" xmlns="http://www.w3.org/2000/svg">
<path d="M29.8589 29.1822L23.9726 23.2947H27.8026C27.9876 23.2947 28.1764 23.1084 28.1764 22.9209V7.03219C28.1764 6.84719 27.9889 6.65969 27.8026 6.65969H23.9726L29.8589 0.770937C30.0464 0.584687 30.0464 0.395938 29.8589 0.210938C29.6739 0.0234375 29.4851 0.0234375 29.3001 0.210938L22.8526 6.65969H15.7489C15.5614 6.65969 15.3751 6.84594 15.3751 7.03219C15.3739 7.21844 15.5601 7.49969 15.7476 7.49969H22.0089L15.9339 13.5734H14.1589L0.888857 0.210938C0.795107 0.0234375 0.513857 0.0234375 0.327607 0.210938C0.141357 0.395938 0.141357 0.677187 0.327607 0.770937L13.0376 13.4809H7.71011C7.61636 13.4809 7.43011 13.5734 7.33636 13.6672L2.00886 22.0784C1.91511 22.2647 1.91511 22.4522 2.00886 22.5447L2.47636 23.1972C2.57011 23.2922 2.66386 23.3859 2.75761 23.3859H6.02886L0.141357 29.2722C-0.0461426 29.4584 -0.0461426 29.6472 0.141357 29.8322C0.421357 29.8322 0.513857 29.9259 0.607607 29.9259C0.702607 29.9259 0.795107 29.9259 0.888857 29.8322L7.33761 23.3859H22.8526L29.3001 29.8322C29.3926 29.9259 29.4851 29.9259 29.5814 29.9259C29.6739 29.9259 29.7664 29.9259 29.8601 29.8322C29.9042 29.7903 29.9393 29.7398 29.9632 29.6839C29.9872 29.628 29.9995 29.5678 29.9994 29.5069C29.9992 29.4461 29.9867 29.3859 29.9626 29.3301C29.9384 29.2742 29.9031 29.2239 29.8589 29.1822ZM27.4289 22.5459H23.2251L15.7476 15.0697L16.4014 14.4159H27.5214V22.5472H27.4289V22.5459ZM23.2251 7.49969H27.4289V13.5734H17.1501L23.2251 7.49969ZM15.1876 14.3222H15.0939H15.1876ZM3.13136 22.5459L2.94511 22.2659L7.99136 14.3222H13.9726L14.6264 14.9759L7.15011 22.4534H3.13136V22.5459ZM8.17761 22.5459L15.0926 15.6309L22.0089 22.5459H8.17761Z" fill="black"/>
</svg>
