<svg width="30" height="30" viewBox="0 0 30 30" fill="none" xmlns="http://www.w3.org/2000/svg">
<path d="M15 0C6.6975 0 0 6.6975 0 15C0 23.3025 6.6975 30 15 30C23.3013 30 30 23.3025 30 15C30 6.6975 23.2062 0 15 0ZM15 29.0575C7.26375 29.0575 0.94375 22.7362 0.94375 15C0.94375 7.26375 7.26375 0.94375 15 0.94375C22.735 0.94375 29.0563 7.26375 29.0563 15C28.9613 22.7362 22.735 29.0575 15 29.0575Z" fill="black"/>
<path d="M19.1499 19.5273C19.0562 19.4336 18.9612 19.2436 18.8674 19.0561C18.7724 18.8686 18.6787 18.5836 18.4887 18.2061C18.1112 17.2623 17.8287 16.3186 17.5449 15.3748C17.2612 14.4323 16.8849 13.4886 16.6012 12.5448C16.3187 11.6023 15.9424 10.6586 15.6574 9.71484L14.9037 9.90359L11.7899 18.4898C11.6962 18.7723 11.6024 19.0548 11.5062 19.2436C11.4124 19.4323 11.3187 19.6211 11.2237 19.7161C11.1287 19.8098 10.9399 19.9048 10.8449 19.9048C10.6599 19.9061 10.4712 19.9986 10.2837 19.9986V20.5648H13.6799V19.9986C13.3024 19.9986 13.0199 19.9061 12.9249 19.8111C12.8312 19.7173 12.6424 19.6223 12.6424 19.4336C12.6424 19.2448 12.6424 19.0561 12.7362 18.7736C12.8299 18.4911 12.9237 18.1136 13.0199 17.9248C13.1137 17.6398 13.2074 17.4523 13.2074 17.1698H16.0387C16.1324 17.3586 16.1324 17.5486 16.2262 17.7361C16.3212 17.9248 16.3212 18.1136 16.4149 18.3023C16.5099 18.4911 16.5099 18.6798 16.6024 18.8686C16.6962 19.1511 16.6962 19.3398 16.6962 19.5273C16.6962 19.7161 16.6024 19.8111 16.5099 19.9061C16.4149 19.9986 16.1312 19.9986 15.8487 20.0936V20.6598H20.1887V20.0936C19.9999 20.0936 19.8112 19.9986 19.6224 19.9986C19.4654 19.841 19.3079 19.6839 19.1499 19.5273ZM13.3024 16.2248C13.4899 15.6598 13.6799 14.9986 13.8674 14.4323C14.0562 13.8661 14.2462 13.2061 14.4337 12.6398H14.5287L15.6587 16.2248H13.3024Z" fill="black"/>
</svg>
