<svg width="30" height="30" viewBox="0 0 30 30" fill="none" xmlns="http://www.w3.org/2000/svg">
<path d="M15.0474 26.98C22.4999 26.98 28.5374 20.9425 28.5374 13.49C28.5374 6.0375 22.4049 0 15.0474 0C7.68865 0 1.4624 6.0375 1.4624 13.49C1.4624 20.9425 7.59365 26.98 15.0474 26.98ZM15.0474 0.85C22.0274 0.85 27.6874 6.51 27.6874 13.49C27.6874 20.4713 22.0274 26.1313 15.0474 26.1313C8.06615 26.1313 2.40615 20.4713 2.40615 13.49C2.40615 6.51 8.06615 0.85 15.0474 0.85Z" fill="black"/>
<path d="M15.5187 18.3009C15.1412 18.3009 14.9525 18.2059 14.6687 18.2059C14.4939 18.2025 14.3263 18.1354 14.1975 18.0172C14.0794 17.8883 14.0123 17.7208 14.0087 17.5459V14.3384H16.2737C16.4625 14.3384 16.6512 14.4322 16.745 14.5272C16.84 14.6209 16.9337 14.7147 17.03 14.9047C17.1225 15.0922 17.1225 15.2809 17.2175 15.4697H17.7837V12.5447H17.2175C17.1225 12.8284 17.1225 13.0172 17.03 13.1109C16.935 13.2047 16.8412 13.3947 16.745 13.3947C16.6512 13.4884 16.4625 13.4884 16.2737 13.4884H14.0087V10.1859V9.80844C14.0087 9.71469 14.1037 9.71469 14.1975 9.61969H16.18C16.3687 9.61969 16.5575 9.71469 16.745 9.71469C16.9337 9.80844 17.03 9.90219 17.1225 9.99844C17.2162 10.1859 17.4062 10.2822 17.5 10.4697C17.5938 10.6584 17.6875 10.9422 17.7837 11.1297L18.3487 11.0359C18.3487 10.8472 18.3487 10.5634 18.255 10.3759C18.255 10.1872 18.255 9.90344 18.16 9.71594V9.14969V8.86719H10.3313V9.33844C10.6138 9.33844 10.8025 9.43219 10.9913 9.43219C11.1788 9.43219 11.2738 9.52719 11.3675 9.61969C11.4625 9.71469 11.5562 9.90344 11.5562 9.99844V17.1684C11.5528 17.3436 11.4857 17.5116 11.3675 17.6409C11.2738 17.7347 11.18 17.8284 10.9913 17.8284C10.8025 17.8284 10.6125 17.9234 10.3313 17.9234V18.3947H15.425V18.3009H15.5187ZM27.2163 29.0547H2.78375C2.5 29.0547 2.3125 29.2434 2.3125 29.5259C2.3125 29.8097 2.5 29.9984 2.78375 29.9984H27.2175C27.5 29.9984 27.6887 29.8097 27.6887 29.5259C27.6875 29.2434 27.4988 29.0547 27.2163 29.0547Z" fill="black"/>
</svg>
