<svg width="30" height="30" viewBox="0 0 30 30" fill="none" xmlns="http://www.w3.org/2000/svg">
<g clip-path="url(#clip0_909_3207)">
<path d="M23.8 22.5789L29.9288 7.86766C30.0238 7.67891 29.9288 7.49016 29.7413 7.39641C29.5525 7.30141 29.3625 7.39641 29.27 7.58516L28.515 9.47141C26.8175 7.96266 25.2138 7.39641 23.705 7.58516C23.3275 7.67891 22.95 7.77391 22.5738 7.96266L29.74 0.796406C29.8338 0.701406 29.8338 0.418906 29.74 0.325156C29.645 0.231406 29.3613 0.231406 29.2688 0.325156L19.5575 10.0377C18.4263 8.43391 16.7288 7.58641 15.0313 7.58641C13.3338 7.58641 11.73 8.62391 10.6938 10.2264L0.697537 0.231406C0.603787 0.136406 0.320037 0.136406 0.226287 0.231406C0.131287 0.325156 0.131287 0.608906 0.226287 0.702656L7.11004 7.58641C6.92129 7.58641 6.73254 7.49141 6.45004 7.49141C4.84629 7.30266 3.14879 7.96391 1.45129 9.47266L0.697537 7.58641C0.602537 7.39766 0.415037 7.39766 0.226287 7.39766C0.0375372 7.49141 -0.0574628 7.68016 0.0375372 7.86891L6.35504 22.5802C6.45004 22.6739 6.54379 22.7689 6.63879 22.7689H6.73254L0.320037 29.1802C0.226287 29.2752 0.226287 29.5577 0.320037 29.6514C0.415037 29.7464 0.508787 29.7464 0.603787 29.7464C0.697537 29.7464 0.792537 29.7464 0.886287 29.6514L7.77004 22.7689H22.385L29.3625 29.7464C29.4575 29.8402 29.5513 29.8402 29.6463 29.8402C29.7413 29.8402 29.835 29.8402 29.93 29.7464C30.025 29.6514 30.025 29.3677 29.93 29.2752L23.4238 22.7689H23.5188C23.6113 22.8614 23.8 22.7689 23.8 22.5789ZM15.03 8.24641C16.5388 8.15266 18.0475 9.00141 19.0838 10.5102L15.03 14.5652L11.1638 10.6977C12.0125 9.18891 13.4275 8.34016 15.03 8.24641ZM6.82629 22.1077L1.73379 10.1327C3.43129 8.62391 4.94004 7.96391 6.35379 8.15266C7.76879 8.34141 9.08879 9.37766 10.22 11.3589C10.3138 11.4527 10.4088 11.5477 10.5025 11.5477C10.5975 11.5477 10.6913 11.4527 10.7863 11.3589L14.4638 15.0364L7.39129 22.1077H6.82629ZM8.43004 22.1077L15.0313 15.5077L21.6313 22.1077H8.43004ZM22.575 22.1077L15.5025 15.0364L19.4625 11.0752C19.4625 11.1702 19.5563 11.1702 19.5563 11.2639C19.65 11.3589 19.745 11.4527 19.8388 11.4527C19.9338 11.4527 20.1225 11.3589 20.1225 11.2639C21.16 9.47266 22.4813 8.34141 23.895 8.15266C25.2163 7.96391 26.725 8.62391 28.3275 10.0389L23.33 22.0152H22.575V22.1077Z" fill="black"/>
</g>
<defs>
<clipPath id="clip0_909_3207">
<rect width="30" height="30" fill="white"/>
</clipPath>
</defs>
</svg>
