<svg width="14" height="14" viewBox="0 0 14 14" fill="none" xmlns="http://www.w3.org/2000/svg">
<g clip-path="url(#clip0_1777_101)">
<path d="M0.259735 3.32238C0.0865306 3.49548 0 3.70063 0 3.93757C0 4.17456 0.0865306 4.37971 0.259735 4.55282L6.38473 10.6778C6.55794 10.8509 6.76294 10.9375 6.99993 10.9375C7.23692 10.9375 7.44206 10.8509 7.61512 10.6778L13.7401 4.55282C13.9133 4.37975 14 4.17461 14 3.93757C14 3.70063 13.9133 3.49548 13.7401 3.32238C13.5671 3.14917 13.3619 3.0625 13.1249 3.0625L0.874931 3.0625C0.637942 3.06254 0.432988 3.14917 0.259735 3.32238Z" fill="black"/>
</g>
<defs>
<clipPath id="clip0_1777_101">
<rect width="14" height="14" fill="white" transform="translate(0 14) rotate(-90)"/>
</clipPath>
</defs>
</svg>
