<svg width="162" height="16" viewBox="0 0 162 16" fill="none" xmlns="http://www.w3.org/2000/svg">
<path d="M17.5434 16L24.1815 0.00109106H36.9794C37.206 0.00109106 37.359 0.231932 37.2702 0.439875L35.7219 4.06525C35.6722 4.18151 35.5578 4.25696 35.4311 4.25696H26.8683L25.999 6.30609L33.4988 6.23203C33.7263 6.22978 33.8816 6.46082 33.7931 6.66989L32.5615 9.57906C32.5116 9.69689 32.3953 9.77298 32.2671 9.77167L24.7346 9.69502L23.7073 11.9806L32.1469 11.9061C32.3766 11.9041 32.5317 12.1393 32.4388 12.3488L30.9028 15.8123C30.8522 15.9264 30.7388 16 30.6137 16H17.5434Z" fill="white"/>
<path d="M49.7981 15.7815L56.3422 0.194582C56.3914 0.0773762 56.5063 0.00109106 56.6337 0.00109106H60.4603C60.6841 0.00109106 60.837 0.226628 60.7537 0.433752L56.1073 11.9806H63.1373C63.2509 11.9806 63.3274 12.0966 63.2824 12.2006L61.7625 15.7144C61.6876 15.8877 61.5164 16 61.3272 16H49.9439C49.831 16 49.7545 15.8854 49.7981 15.7815Z" fill="white"/>
<path d="M98.1902 15.7072L99.5491 12.4159C99.6347 12.2084 99.4818 11.9806 99.2568 11.9806H91.4312L94.5922 4.09934H102.436C102.758 4.09934 103.048 3.90428 103.168 3.60634L104.453 0.43439C104.537 0.227175 104.384 0.00109106 104.16 0.00109106H94.3429C92.3953 0.00109106 90.6457 1.18892 89.9317 2.99607L86.07 12.7687C85.4569 14.3202 86.6036 16 88.2756 16H97.7517C97.9439 16 98.117 15.8844 98.1902 15.7072Z" fill="white"/>
<path d="M113.558 4.09934L108.699 15.9022C108.674 15.9614 108.617 16 108.553 16H104.23C104.118 16 104.042 15.8869 104.084 15.7833L108.817 4.09934H104.149C103.924 4.09934 103.772 3.87326 103.855 3.66604L105.26 0.198291C105.308 0.0791163 105.424 0.00109106 105.553 0.00109106H120.097C120.328 0.00109106 120.481 0.239557 120.384 0.448448L118.779 3.9162C118.728 4.02784 118.616 4.09934 118.492 4.09934H113.558Z" fill="white"/>
<path d="M119.604 15.9014L125.956 0.217752C125.998 0.114143 125.922 0.00109106 125.81 0.00109106H121.488C121.423 0.00109106 121.366 0.0398079 121.341 0.099062L114.912 15.7827C114.869 15.8864 114.945 16 115.058 16H119.457C119.522 16 119.58 15.961 119.604 15.9014Z" fill="white"/>
<path d="M140.212 15.5642L146.588 0.195804C146.637 0.0779481 146.753 0.00109106 146.881 0.00109106H151.028C151.163 0.00109106 151.282 0.0857549 151.327 0.212197L154.019 7.88233L157.178 0.19675C157.227 0.0783915 157.342 0.00109106 157.471 0.00109106H161.527C161.752 0.00109106 161.905 0.229321 161.819 0.436877L155.443 15.8053C155.394 15.9231 155.279 16 155.151 16H151.004C150.869 16 150.749 15.9149 150.705 15.788L148.013 8.03996L144.775 15.8058C144.726 15.9234 144.61 16 144.483 16H140.504C140.279 16 140.126 15.7718 140.212 15.5642Z" fill="white"/>
<path fill-rule="evenodd" clip-rule="evenodd" d="M127.461 2.97735L123.547 12.7594C122.926 14.3122 124.073 16 125.749 16H134.319C136.244 16 137.979 14.8385 138.707 13.0609L142.725 3.26027C143.363 1.70485 142.216 0.00109106 140.531 0.00109106H131.865C129.924 0.00109106 128.18 1.18008 127.461 2.97735ZM128.652 11.9018L131.655 4.09934H137.502L134.5 11.9018H128.652Z" fill="white"/>
<path fill-rule="evenodd" clip-rule="evenodd" d="M67.0673 15.7422L79.862 0.231029C79.9821 0.0854454 80.1612 0.00109106 80.3503 0.00109106H84.0881C84.2603 0.00109106 84.4008 0.138476 84.4042 0.31013L84.7078 15.6785C84.7113 15.855 84.5688 16 84.3918 16H80.3678C80.1932 16 80.0517 15.8589 80.0517 15.6847V13.3992H74.2039L72.3391 15.7597C72.2192 15.9114 72.0362 16 71.8425 16H67.1893C67.0558 16 66.9824 15.8451 67.0673 15.7422ZM80.0517 9.77383V6.14846L77.1278 9.77383H80.0517Z" fill="white"/>
<path fill-rule="evenodd" clip-rule="evenodd" d="M31.2146 16L44.3169 0.116061C44.3769 0.0432692 44.4665 0.00109106 44.561 0.00109106H48.4466C48.6193 0.00109106 48.7601 0.13941 48.7626 0.311682L48.9904 15.6801C48.993 15.856 48.8507 16 48.6743 16H44.7098C44.5424 16 44.404 15.8699 44.3942 15.7033L44.2537 13.3204H38.6429L36.2872 15.8972C36.2273 15.9627 36.1425 16 36.0536 16H31.2146ZM44.4117 9.77383H41.4088L44.4117 6.06965V9.77383Z" fill="white"/>
<path fill-rule="evenodd" clip-rule="evenodd" d="M6.51687 0.293161L0.0904052 15.7821C0.047347 15.8859 0.123831 16 0.236445 16H4.21994C4.34486 16 4.45806 15.9266 4.5088 15.8128L6.63805 11.0348H8.45561L10.4296 15.805C10.4784 15.923 10.5938 16 10.7217 16H14.9442C15.1675 16 15.3204 15.7754 15.2381 15.5685L13.4341 11.0348C13.4341 11.0348 14.5405 11.1585 16.2 10.6408C17.8595 10.123 20.1512 3.15359 20.1512 3.15359C20.1512 3.15359 20.4673 2.28666 19.8351 1.10446C19.2029 -0.0777276 18.1756 0.00109106 18.1756 0.00109106H6.95499C6.76315 0.00109106 6.59022 0.116377 6.51687 0.293161ZM13.9083 6.77896H8.13951L9.32488 4.25696H15.0146L13.9083 6.77896Z" fill="white"/>
</svg>
