<svg width="30" height="26" viewBox="0 0 30 26" fill="none" xmlns="http://www.w3.org/2000/svg">
<path d="M14.9572 26C14.5615 26.001 14.1695 25.922 13.8038 25.7676C13.4381 25.6132 13.1059 25.3864 12.8263 25.1003L2.52187 14.5696C1.70786 13.7287 1.06574 12.7306 0.63291 11.6335C0.200081 10.5365 -0.0147981 9.36237 0.000791365 8.1796C0.00863445 7.09569 0.225646 6.02402 0.639397 5.02596C1.05315 4.0279 1.65551 3.12306 2.41197 2.36328C3.16844 1.6035 4.06415 1.0037 5.04779 0.598243C6.03144 0.192784 7.08369 -0.0103702 8.14429 0.000418062C9.22386 -0.0106952 10.2946 0.199863 11.2931 0.619606C12.2915 1.03935 13.1973 1.65973 13.9568 2.44395L14.9572 3.46635L15.7776 2.62798C17.1941 1.14199 19.0896 0.230982 21.1129 0.0636783C23.1363 -0.103625 25.1504 0.484117 26.7823 1.71805C27.7112 2.44911 28.4771 3.37404 29.0288 4.43124C29.5806 5.48845 29.9057 6.65366 29.9823 7.84928C30.059 9.04491 29.8855 10.2435 29.4735 11.3653C29.0614 12.487 28.4202 13.5062 27.5926 14.3549L17.0881 25.1003C16.8085 25.3864 16.4763 25.6132 16.1106 25.7676C15.7449 25.922 15.3529 26.001 14.9572 26ZM8.10427 2.03499C6.51411 2.03333 4.98569 2.66399 3.84244 3.79351C3.25959 4.36661 2.79608 5.05418 2.47975 5.81493C2.16342 6.57568 2.0008 7.39391 2.00165 8.2205C1.99288 9.12973 2.1608 10.0317 2.49568 10.8741C2.83056 11.7165 3.32573 12.4826 3.95249 13.128L14.2569 23.6587C14.3499 23.7545 14.4606 23.8306 14.5825 23.8825C14.7044 23.9344 14.8351 23.9611 14.9672 23.9611C15.0993 23.9611 15.23 23.9344 15.352 23.8825C15.4739 23.8306 15.5845 23.7545 15.6775 23.6587L26.192 12.9031C26.8092 12.259 27.2861 11.4888 27.5913 10.643C27.8964 9.79716 28.0231 8.89494 27.9628 7.99557C27.9094 7.08698 27.6645 6.20091 27.2449 5.39801C26.8253 4.59511 26.2409 3.89434 25.5317 3.34366C24.2873 2.40601 22.7518 1.96266 21.2113 2.09621C19.6707 2.22976 18.2302 2.9311 17.1582 4.06956L15.6675 5.63383C15.5745 5.72966 15.4639 5.80572 15.3419 5.85762C15.22 5.90953 15.0893 5.93625 14.9572 5.93625C14.8251 5.93625 14.6944 5.90953 14.5725 5.85762C14.4506 5.80572 14.3399 5.72966 14.2469 5.63383L12.5462 3.89575C11.3748 2.70903 9.7937 2.04068 8.14429 2.03499H8.10427Z" fill="#FF4930"/>
<path d="M8.10427 2.03499C6.51411 2.03333 4.98569 2.66399 3.84244 3.79351C3.25959 4.36661 2.79608 5.05418 2.47975 5.81493C2.16342 6.57568 2.0008 7.39391 2.00165 8.2205C1.99288 9.12973 2.1608 10.0317 2.49568 10.8741C2.83056 11.7165 3.32573 12.4826 3.95249 13.128L14.2569 23.6587C14.3499 23.7545 14.4606 23.8306 14.5825 23.8825C14.7044 23.9344 14.8351 23.9611 14.9672 23.9611C15.0993 23.9611 15.23 23.9344 15.352 23.8825C15.4739 23.8306 15.5845 23.7545 15.6775 23.6587L26.192 12.9031C26.8092 12.259 27.2861 11.4888 27.5913 10.643C27.8964 9.79716 28.0231 8.89494 27.9628 7.99557C27.9094 7.08698 27.6645 6.20091 27.2449 5.39801C26.8253 4.59511 26.2409 3.89434 25.5317 3.34366C24.2873 2.40601 22.7518 1.96266 21.2113 2.09621C19.6707 2.22976 18.2302 2.9311 17.1582 4.06956L15.6675 5.63383C15.5745 5.72966 15.4639 5.80572 15.3419 5.85762C15.22 5.90953 15.0893 5.93625 14.9572 5.93625C14.8251 5.93625 14.6944 5.90953 14.5725 5.85762C14.4506 5.80572 14.3399 5.72966 14.2469 5.63383L12.5462 3.89575C11.3748 2.70903 9.7937 2.04068 8.14429 2.03499H8.10427Z" fill="#FF4930"/>
</svg>
