<svg width="15" height="16" viewBox="0 0 15 16" fill="none" xmlns="http://www.w3.org/2000/svg">
<path d="M10.4287 10.1189L10.3412 10.2061L9.06387 8.93177C9.81627 8.04146 10.2712 6.88929 10.2712 5.63238C10.2712 4.28819 9.72878 2.97891 8.7664 2.01877C7.80402 1.04117 6.47419 0.5 5.12686 0.5C2.29221 0.5 0 2.80434 0 5.63238C0 7.01149 0.542432 8.30332 1.52231 9.28091C2.48469 10.2411 3.76203 10.7648 5.10936 10.7648C5.12686 10.7648 5.12686 10.7648 5.14436 10.7648C6.4042 10.7648 7.55906 10.3109 8.45144 9.56023L9.72878 10.8346L9.5888 10.9568C9.41382 11.1314 9.41382 11.4107 9.5888 11.5678L13.2283 15.1989C13.6308 15.6004 14.2957 15.6004 14.6982 15.1989C15.1006 14.7974 15.1006 14.134 14.6982 13.7325L11.0411 10.1189C10.8661 9.94428 10.6037 9.94428 10.4287 10.1189ZM5.12686 9.87446H5.10936C3.9895 9.87446 2.92213 9.43803 2.13473 8.65246C1.32983 7.84943 0.874891 6.76709 0.874891 5.63238C0.874891 3.27568 2.78215 1.37285 5.12686 1.37285C6.24672 1.37285 7.33158 1.82674 8.13648 2.62976C8.94138 3.43279 9.39633 4.51513 9.39633 5.63238C9.39633 7.97163 7.48906 9.87446 5.12686 9.87446Z" fill="black" fill-opacity="0.3"/>
<path d="M1.67969 5.63375C1.67969 6.00034 1.73218 6.34949 1.83717 6.69863C1.92466 6.94303 2.20462 7.06523 2.44959 6.96048C2.64207 6.8732 2.74705 6.64626 2.67706 6.43677C2.58957 6.17491 2.55458 5.91306 2.55458 5.63375C2.55458 4.98783 2.79955 4.37684 3.23699 3.90549C3.37698 3.74838 3.37698 3.50398 3.25449 3.34687C3.07951 3.13738 2.78205 3.13738 2.58957 3.32941C2.01215 3.94041 1.67969 4.76089 1.67969 5.63375Z" fill="black" fill-opacity="0.3"/>
</svg>
