<svg width="20" height="14" viewBox="0 0 20 14" fill="none" xmlns="http://www.w3.org/2000/svg">
<path d="M18.8006 0H1.20532C0.543575 0 0 0.525795 0 1.1787V3.15477V6.03797V12.8213C0 13.4684 0.537666 14 1.20532 14H18.7947C19.4564 14 20 13.4742 20 12.8213V6.03219V3.14899V1.17293C20 0.525795 19.4623 0 18.8006 0ZM1.20532 0.866694H18.7947C18.9719 0.866694 19.1137 1.00537 19.1137 1.1787V2.72142H0.892172V1.1787C0.892172 1.00537 1.03397 0.866694 1.20532 0.866694ZM19.1137 5.59884H16.0059L18.3634 3.58234H19.1137V5.59884ZM11.6691 5.59884L14.0266 3.58234H17.0222L14.6647 5.59884H11.6691ZM7.32644 5.59884L9.6839 3.58234H12.6795L10.322 5.59884H7.32644ZM2.98966 5.59884L5.34712 3.58234H8.34269L5.98523 5.59884H2.98966ZM0.892172 5.59884V3.58234H4L1.64254 5.59884H0.892172ZM18.8006 13.1275H1.20532C1.02806 13.1275 0.886263 12.9889 0.886263 12.8155V6.46554H19.1078V12.8155C19.1137 12.9889 18.9719 13.1275 18.8006 13.1275Z" fill="white"/>
<path d="M13.9975 9.67772C14.742 9.67772 15.3446 9.08837 15.3446 8.36034C15.3446 7.63232 14.742 7.04297 13.9975 7.04297C13.2531 7.04297 12.6504 7.63232 12.6504 8.36034C12.6504 9.08837 13.2531 9.67772 13.9975 9.67772ZM13.9975 7.91544C14.2516 7.91544 14.4584 8.11767 14.4584 8.36612C14.4584 8.61458 14.2516 8.8168 13.9975 8.8168C13.7434 8.8168 13.5367 8.61458 13.5367 8.36612C13.5367 8.11767 13.7434 7.91544 13.9975 7.91544Z" fill="white"/>
<path d="M16.9858 10.1465C16.2413 10.1465 15.6387 10.7358 15.6387 11.4639C15.6387 12.1919 16.2413 12.7812 16.9858 12.7812C17.7303 12.7812 18.3329 12.1919 18.3329 11.4639C18.3329 10.7358 17.7243 10.1465 16.9858 10.1465ZM16.9858 11.9088C16.7317 11.9088 16.5249 11.7065 16.5249 11.4581C16.5249 11.2096 16.7317 11.0074 16.9858 11.0074C17.2399 11.0074 17.4466 11.2096 17.4466 11.4581C17.4466 11.7065 17.2399 11.9088 16.9858 11.9088Z" fill="white"/>
<path d="M17.8195 7.52801C17.6482 7.36045 17.3646 7.36045 17.1933 7.52801L13.1578 11.4744C12.9865 11.6419 12.9865 11.9193 13.1578 12.0868C13.2464 12.1735 13.3587 12.2139 13.471 12.2139C13.5832 12.2139 13.6955 12.1735 13.7841 12.0868L17.8195 8.14048C17.9909 7.97292 17.9909 7.69558 17.8195 7.52801Z" fill="white"/>
</svg>
