<svg width="30" height="30" viewBox="0 0 30 30" fill="none" xmlns="http://www.w3.org/2000/svg">
<path d="M29.0069 27.2563C29.0528 27.2038 29.0781 27.1365 29.0781 27.0669C29.0781 26.9972 29.0528 26.9299 29.0069 26.8775L20.6794 10.7887L28.8194 2.65C29.0069 2.46125 29.0069 2.27125 28.8194 2.0825C28.6294 1.89375 28.4381 1.89375 28.2506 2.0825L20.3006 10.0312L15.1894 0.18875C15.0944 0.09375 15.0006 0 14.8106 0C14.7156 0 14.5269 0.09375 14.4319 0.18875L9.41563 10.1262L1.65563 2.17625C1.46688 1.9875 1.27688 1.9875 1.08813 2.17625C1.0413 2.2635 1.01679 2.36098 1.01679 2.46C1.01679 2.55902 1.0413 2.6565 1.08813 2.74375L9.13188 10.7887L0.993125 26.8775C0.898125 26.9725 0.898125 27.1613 0.993125 27.2563C1.08813 27.3512 1.18188 27.445 1.27688 27.445H3.07563L1.18313 29.3388C0.994375 29.5263 0.994375 29.7175 1.18313 29.9062C1.27688 30 1.37188 30 1.46688 30C1.56188 30 1.65563 30 1.75188 29.9062L4.21188 27.445H25.7894L28.2506 29.9062C28.3456 30 28.4381 30 28.5331 30C28.6281 30 28.7231 30 28.8194 29.9062C29.0069 29.7175 29.0069 29.5263 28.8194 29.3388L26.9244 27.445H28.7231C28.8194 27.445 28.9119 27.3512 29.0069 27.2563ZM14.9056 1.23L19.8281 10.6938L15.0006 15.5212L10.1731 10.5988L14.9056 1.23ZM1.94063 26.6875L9.70063 11.3562L14.4331 16.0888L3.83313 26.6875H1.94063ZM4.96813 26.6875L15.0006 16.5625L25.0319 26.6875H4.96813ZM26.0719 26.6875L15.4731 16.0888L20.1094 11.4513L27.9631 26.7825H26.0706V26.6875H26.0719Z" fill="black"/>
</svg>
