<svg width="30" height="30" viewBox="0 0 30 30" fill="none" xmlns="http://www.w3.org/2000/svg">
<path d="M29.6024 24.5588H1.01742C0.828669 24.5588 0.732419 24.4663 0.638669 24.3713L0.0711689 23.6138C0.0244497 23.5267 0 23.4294 0 23.3306C0 23.2318 0.0244497 23.1346 0.0711689 23.0475L6.12867 13.4875C6.22367 13.3925 6.31742 13.2975 6.50742 13.2975H29.1299V6.3875H15.6874C15.4037 6.3875 15.2149 6.1975 15.2149 5.91375C15.2149 5.63 15.4037 5.44125 15.6874 5.44125H29.5074C29.7924 5.44125 29.9799 5.63 29.9799 5.91375V24.0875C30.0762 24.2763 29.7924 24.5588 29.6024 24.5588ZM1.20617 23.6138H29.1287V14.2438H6.79117L1.01742 23.3313L1.20617 23.6138Z" fill="black"/>
<path d="M12.7538 17.3675C13.2556 17.3691 13.7363 17.5692 14.0911 17.924C14.4459 18.2788 14.6459 18.7595 14.6476 19.2612C14.6459 19.763 14.4459 20.2437 14.0911 20.5985C13.7363 20.9533 13.2556 21.1533 12.7538 21.155C12.2523 21.153 11.7719 20.9528 11.4174 20.5981C11.0629 20.2433 10.863 19.7628 10.8613 19.2612C10.9563 18.2187 11.8076 17.3675 12.7538 17.3675ZM19.8538 17.3675C20.3556 17.3691 20.8363 17.5692 21.1911 17.924C21.5459 18.2788 21.7459 18.7595 21.7476 19.2612C21.7476 20.3012 20.8938 21.155 19.8538 21.155C19.3521 21.1533 18.8714 20.9533 18.5166 20.5985C18.1618 20.2437 17.9617 19.763 17.9601 19.2612C18.0538 18.2187 18.8126 17.3675 19.8538 17.3675Z" fill="black"/>
</svg>
