<svg width="40" height="40" viewBox="0 0 40 40" fill="none" xmlns="http://www.w3.org/2000/svg">
<g clip-path="url(#clip0_641_4454)">
<path d="M32.215 31.6583C35.2325 28.5417 36.9131 24.3696 36.8983 20.0316C36.8983 15.6083 35.1267 11.4366 32.215 8.40162L39.6833 0.946624C39.935 0.693291 39.935 0.439958 39.6833 0.188291C39.43 -0.0650423 39.1767 -0.0650423 38.9233 0.188291L31.4567 7.64496C28.4183 4.86329 24.3667 3.22162 19.9367 3.22162C15.5067 3.22162 11.3283 4.99329 8.41667 7.77329L0.95 0.314958C0.696667 0.063291 0.443333 0.063291 0.19 0.314958C-0.0633333 0.568291 -0.0633333 0.821624 0.19 1.07329L7.65833 8.52996C4.87333 11.5633 3.10167 15.6083 3.10167 20.0316C3.11129 24.3649 4.78832 28.5282 7.785 31.6583L0.316667 39.1166C0.0633333 39.3683 0.0633333 39.6216 0.316667 39.8766C0.443333 40 0.57 40 0.696667 40C0.823333 40 0.95 40 1.07667 39.8766L8.54333 32.4166C11.5817 35.1983 15.6317 36.965 20.0633 36.965C24.495 36.965 28.5433 35.1966 31.5817 32.4166L39.05 39.8766C39.1783 40 39.3033 40 39.43 40C39.5567 40 39.6833 40 39.8117 39.8766C40.0633 39.6216 40.0633 39.3683 39.8117 39.1166L32.215 31.6583ZM35.76 20.0333C35.76 24.2033 34.115 27.9933 31.4567 30.9016L20.6967 20.0333L31.4567 9.16329C34.115 12.07 35.76 15.8616 35.76 20.0333ZM19.9367 4.23329C24.1133 4.23329 27.785 5.87662 30.6967 8.40329L19.9367 19.2716L9.17667 8.52996C12.0769 5.7666 15.9308 4.22768 19.9367 4.23329ZM4.11333 20.0333C4.11333 15.8616 5.75833 12.0716 8.41667 9.28996L19.1767 20.0333L8.41667 30.775C5.65142 27.8828 4.10976 24.0347 4.11333 20.0333ZM19.9367 35.83C15.76 35.83 12.09 34.1883 9.17667 31.6583L19.8083 20.9183L30.5683 31.6583C27.91 34.1883 24.1133 35.83 19.9367 35.83Z" fill="black"/>
</g>
<defs>
<clipPath id="clip0_641_4454">
<rect width="40" height="40" fill="white"/>
</clipPath>
</defs>
</svg>
