<svg width="30" height="30" viewBox="0 0 30 30" fill="none" xmlns="http://www.w3.org/2000/svg">
<g clip-path="url(#clip0_792_4247)">
<path d="M29.6798 6.06876C29.491 5.97376 29.206 6.06876 29.1123 6.25751L28.3548 7.96251C26.7448 6.54251 25.1348 5.87876 23.6198 6.16376C22.1985 6.35376 20.8735 7.30001 19.7373 9.00501C18.601 7.20626 16.801 6.16376 14.9073 6.16376C13.1085 6.16376 11.4973 7.20501 10.456 8.91001C9.31854 7.30001 7.99229 6.25751 6.47729 6.06876C4.96229 5.88001 3.25729 6.54251 1.55229 8.05751L0.794793 6.25751C0.699793 6.06876 0.416043 5.97376 0.226043 6.06876C0.037293 6.16376 -0.0577069 6.35376 0.037293 6.54251L6.28729 21.2225C6.38229 21.4113 6.47729 21.5075 6.66604 21.5075H23.4298C23.6185 21.5075 23.7135 21.4125 23.8085 21.2225L29.9648 6.54251C30.0585 6.35376 29.9648 6.16376 29.6798 6.06876ZM23.146 20.6538H6.95104L1.83604 8.81501C3.44604 7.39376 4.96104 6.73126 6.38229 6.92126C7.80354 7.11001 9.03479 8.15251 10.171 10.0463C10.2648 10.1413 10.3598 10.235 10.5498 10.235C10.7385 10.235 10.8335 10.14 10.9285 10.0463C11.781 8.24751 13.2973 7.11001 15.001 7.11001C16.7998 7.01501 18.506 8.15126 19.4523 10.0463C19.5473 10.1413 19.641 10.235 19.8323 10.235C20.0198 10.235 20.116 10.14 20.211 10.0463C21.2535 8.24751 22.4835 7.20501 23.9048 7.01626C25.231 6.82626 26.651 7.49001 28.2598 8.81501L23.146 20.6538Z" fill="black"/>
<path d="M22.5785 11.3725C21.821 11.3725 21.2523 11.9412 21.2523 12.6987C21.2523 13.4562 21.8198 14.025 22.5785 14.025C23.3348 14.025 23.9048 13.4562 23.9048 12.6987C23.9035 12.035 23.3348 11.3725 22.5785 11.3725ZM22.5785 13.2662C22.4309 13.2566 22.2918 13.1935 22.1871 13.0889C22.0825 12.9843 22.0195 12.8452 22.0098 12.6975C22.0098 12.4125 22.1985 12.1287 22.5785 12.1287C22.8623 12.1287 23.146 12.3175 23.146 12.6975C23.146 13.0775 22.861 13.2662 22.5785 13.2662ZM12.2548 15.54C13.1073 15.1612 13.581 14.4987 13.581 13.7412C13.581 12.8887 12.9185 11.9425 11.4973 11.9425C10.7398 11.9425 9.98227 12.2262 9.60352 12.5112L9.88852 13.2687C10.1723 13.08 10.741 12.795 11.3085 12.795C12.256 12.795 12.6348 13.3637 12.6348 13.9312C12.6348 14.7837 11.6885 15.1625 11.0248 15.1625H10.4548V15.92H11.0235C11.9698 15.92 12.9173 16.3925 12.9173 17.435C12.9173 18.0025 12.5385 18.8562 11.3073 18.8562C10.6448 18.8562 9.98102 18.57 9.69727 18.3825L9.31852 19.1387C9.69727 19.4237 10.3598 19.6125 11.2123 19.6125C12.9173 19.6125 13.8648 18.57 13.8648 17.435C13.8648 16.3912 13.201 15.7287 12.2548 15.54ZM17.0848 12.035C15.5698 12.035 14.5273 13.3612 14.5273 15.8225C14.5273 18.285 15.4735 19.6112 16.8948 19.6112C18.506 19.6112 19.4523 18.19 19.4523 15.7287C19.4523 13.3612 18.5998 12.035 17.0848 12.035ZM16.9898 18.855C16.1373 18.855 15.4748 17.8125 15.4748 15.8237C15.4748 13.835 16.1385 12.7937 16.9898 12.7937C18.0323 12.7937 18.506 14.025 18.506 15.8237C18.506 17.6237 18.0323 18.855 16.9898 18.855ZM23.3348 23.21H6.95102C6.66727 23.21 6.47852 23.4 6.47852 23.5887C6.47852 23.7787 6.66727 23.9687 6.85727 23.9687H23.2398C23.3384 23.9623 23.4314 23.9202 23.5013 23.8503C23.5712 23.7804 23.6133 23.6874 23.6198 23.5887C23.6198 23.4012 23.5248 23.21 23.3348 23.21Z" fill="black"/>
</g>
<defs>
<clipPath id="clip0_792_4247">
<rect width="30" height="30" fill="white"/>
</clipPath>
</defs>
</svg>
