<svg width="30" height="30" viewBox="0 0 30 30" fill="none" xmlns="http://www.w3.org/2000/svg">
<path d="M29.6213 0H0.37875C0.280422 0.00645853 0.187793 0.048436 0.118114 0.118114C0.048436 0.187793 0.00645853 0.280422 0 0.37875V29.6225C0 29.8113 0.18875 30 0.37875 30H29.6225C29.8113 30 30 29.8113 30 29.6213V0.37875C29.9935 0.280422 29.9516 0.187793 29.8819 0.118114C29.8122 0.048436 29.7196 0.00645853 29.6213 0V0ZM29.1475 29.1475H0.75625V0.75625H29.1475V29.1475Z" fill="black"/>
<path d="M14.9525 25.1725C16.2963 25.1783 17.6278 24.9179 18.8704 24.4063C20.113 23.8948 21.2419 23.1422 22.1921 22.192C23.1422 21.2419 23.8948 20.1129 24.4064 18.8704C24.9179 17.6278 25.1783 16.2962 25.1725 14.9525C25.1725 9.36874 20.6313 4.82624 14.9525 4.82624C13.6209 4.81979 12.3013 5.0773 11.0698 5.58391C9.83828 6.09051 8.7194 6.83616 7.7778 7.77776C6.83621 8.71936 6.09056 9.83823 5.58395 11.0697C5.07735 12.3012 4.81983 13.6209 4.82629 14.9525C4.82629 20.6312 9.36879 25.1725 14.9525 25.1725ZM14.9525 5.58374C20.1575 5.58374 24.3213 9.74749 24.3213 14.9525C24.3213 20.1575 20.1575 24.3212 14.9525 24.3212C9.74754 24.3212 5.58379 20.1575 5.58379 14.9525C5.58379 9.84249 9.84254 5.58374 14.9525 5.58374Z" fill="black"/>
<path d="M14.9525 16.5612C15.805 16.5612 16.5625 15.8037 16.5625 14.9525C16.5625 14.1012 15.805 13.3438 14.9525 13.3438C14.1012 13.3438 13.3438 14.1012 13.3438 14.9525C13.3438 15.8037 14.1012 16.5612 14.9525 16.5612Z" fill="black"/>
</svg>
