<svg width="20" height="20" viewBox="0 0 20 20" fill="none" xmlns="http://www.w3.org/2000/svg">
<path d="M9.99918 0.185547L0 4.91738V7.97098H1.36024V19.8128H2.19359V7.97098H17.8062V19.8128H18.6395V7.97098H20V4.87771L9.99918 0.185547ZM19.1667 7.13763H0.833347V5.44514L10.0008 1.10677L19.1667 5.4071V7.13763H19.1667Z" fill="black"/>
<path d="M9.53726 11.332H5.72461V15.0928H9.53726V11.332ZM8.70392 14.2595H6.55792V12.1654H8.70392V14.2595Z" fill="black"/>
<path d="M14.2755 11.332H10.4629V15.0928H14.2755V11.332ZM13.4422 14.2595H11.2962V12.1654H13.4422V14.2595Z" fill="black"/>
<path d="M3.39844 19.5852H7.21129V15.8242H3.39844V19.5852ZM4.23174 16.6576H6.37795V18.7519H4.23174V16.6576Z" fill="black"/>
<path d="M8.09375 19.5852H11.9066V15.8242H8.09375V19.5852ZM8.92706 16.6576H11.0733V18.7519H8.92706V16.6576Z" fill="black"/>
<path d="M12.7891 19.5852H16.6017V15.8242H12.7891V19.5852ZM13.6224 16.6576H15.7684V18.7519H13.6224V16.6576Z" fill="black"/>
<path d="M5.67338 5.36523H3.6875V6.19858H5.67338V5.36523Z" fill="black"/>
<path d="M10.9937 5.36523H9.00781V6.19858H10.9937V5.36523Z" fill="black"/>
<path d="M16.312 5.36523H14.3262V6.19858H16.312V5.36523Z" fill="black"/>
</svg>
