<svg width="20" height="20" viewBox="0 0 20 20" fill="none" xmlns="http://www.w3.org/2000/svg">
<path d="M13.3595 12.4204L13.2595 12.5204L11.7995 11.0604C12.6595 10.0404 13.1795 8.72039 13.1795 7.28039C13.1795 5.74039 12.5595 4.24039 11.4595 3.14039C10.3595 2.02039 8.83945 1.40039 7.29945 1.40039C4.05945 1.40039 1.43945 4.04039 1.43945 7.28039C1.43945 8.86039 2.05945 10.3404 3.17945 11.4604C4.27945 12.5604 5.73945 13.1604 7.27945 13.1604C7.29945 13.1604 7.29945 13.1604 7.31945 13.1604C8.75945 13.1604 10.0795 12.6404 11.0995 11.7804L12.5595 13.2404L12.3995 13.3804C12.1995 13.5804 12.1995 13.9004 12.3995 14.0804L16.5595 18.2404C17.0195 18.7004 17.7795 18.7004 18.2395 18.2404C18.6995 17.7804 18.6995 17.0204 18.2395 16.5604L14.0595 12.4204C13.8595 12.2204 13.5595 12.2204 13.3595 12.4204ZM7.29945 12.1404H7.27945C5.99945 12.1404 4.77945 11.6404 3.87945 10.7404C2.95945 9.82039 2.43945 8.58039 2.43945 7.28039C2.43945 4.58039 4.61945 2.40039 7.29945 2.40039C8.57945 2.40039 9.81945 2.92039 10.7395 3.84039C11.6595 4.76039 12.1795 6.00039 12.1795 7.28039C12.1795 9.96039 9.99945 12.1404 7.29945 12.1404Z" fill="white"/>
<path d="M3.35938 7.28012C3.35938 7.70012 3.41938 8.10012 3.53938 8.50012C3.63938 8.78012 3.95938 8.92012 4.23938 8.80012C4.45938 8.70012 4.57938 8.44012 4.49938 8.20012C4.39938 7.90012 4.35937 7.60012 4.35937 7.28012C4.35937 6.54012 4.63938 5.84012 5.13938 5.30012C5.29938 5.12012 5.29937 4.84012 5.15937 4.66012C4.95937 4.42012 4.61938 4.42012 4.39938 4.64012C3.73938 5.34012 3.35938 6.28012 3.35938 7.28012Z" fill="white"/>
</svg>
