<svg width="20" height="20" viewBox="0 0 20 20" fill="none" xmlns="http://www.w3.org/2000/svg">
<path d="M0.335342 10.3351C0.519373 10.3351 0.668731 10.186 0.668731 10.0017C0.668731 4.85448 4.85643 0.666778 10.0036 0.666778C12.113 0.666778 14.1303 1.3719 15.7719 2.66711H14.0043C13.8203 2.66711 13.6709 2.81614 13.6709 3.0005C13.6709 3.18486 13.8203 3.33389 14.0043 3.33389H16.6431C16.6651 3.33589 16.6857 3.33622 16.7074 3.33389H17.0045V0.333389C17.0045 0.149025 16.8551 0 16.6711 0C16.487 0 16.3377 0.149025 16.3377 0.333389V2.27038C14.552 0.8028 12.331 0 10.0036 0C4.4887 0 0.00195312 4.48675 0.00195312 10.0017C0.00195313 10.186 0.151311 10.3351 0.335342 10.3351Z" fill="black"/>
<path d="M10.0045 2.66797C5.96014 2.66797 2.66992 5.95818 2.66992 10.0025C2.66992 14.0469 5.96014 17.3371 10.0045 17.3371C14.0488 17.3371 17.339 14.0469 17.339 10.0025C17.339 5.95818 14.0488 2.66797 10.0045 2.66797ZM10.0045 16.6703C6.32786 16.6703 3.3367 13.6791 3.3367 10.0025C3.3367 6.32591 6.32786 3.33475 10.0045 3.33475C13.6811 3.33475 16.6723 6.32591 16.6723 10.0025C16.6723 13.6791 13.6811 16.6703 10.0045 16.6703Z" fill="black"/>
<path d="M10.0033 5.00152C10.1873 5.00152 10.3367 4.8525 10.3367 4.66814V4.00136C10.3367 3.81699 10.1873 3.66797 10.0033 3.66797C9.81928 3.66797 9.66992 3.81699 9.66992 4.00136V4.66814C9.66992 4.8525 9.81928 5.00152 10.0033 5.00152Z" fill="black"/>
<path d="M10.0033 15.002C9.81928 15.002 9.66992 15.151 9.66992 15.3353V16.0021C9.66992 16.1865 9.81928 16.3355 10.0033 16.3355C10.1873 16.3355 10.3367 16.1865 10.3367 16.0021V15.3353C10.3367 15.151 10.1873 15.002 10.0033 15.002Z" fill="black"/>
<path d="M15.3373 10.3347H16.0041C16.1881 10.3347 16.3375 10.1857 16.3375 10.0014C16.3375 9.81699 16.1881 9.66797 16.0041 9.66797H15.3373C15.1533 9.66797 15.0039 9.81699 15.0039 10.0014C15.0039 10.1857 15.1533 10.3347 15.3373 10.3347Z" fill="black"/>
<path d="M4.67009 9.66797H4.00331C3.81928 9.66797 3.66992 9.81699 3.66992 10.0014C3.66992 10.1857 3.81928 10.3347 4.00331 10.3347H4.67009C4.85412 10.3347 5.00348 10.1857 5.00348 10.0014C5.00348 9.81699 4.85412 9.66797 4.67009 9.66797Z" fill="black"/>
<path d="M10.3361 8.38166V6.66737C10.3361 6.48301 10.1867 6.33398 10.0027 6.33398C9.81867 6.33398 9.66931 6.48301 9.66931 6.66737V8.38166C9.09588 8.53068 8.66915 9.0481 8.66915 9.66787C8.66915 9.91458 8.74083 10.1426 8.85818 10.341L6.09972 13.0994C5.96936 13.2298 5.96936 13.4405 6.09972 13.5709C6.16473 13.6359 6.25008 13.6685 6.33542 13.6685C6.42077 13.6685 6.50612 13.6359 6.57113 13.5709L9.32959 10.8124C9.52796 10.9297 9.75599 11.0014 10.0027 11.0014C10.7382 11.0014 11.3363 10.4033 11.3363 9.66787C11.3363 9.0481 10.9095 8.53068 10.3361 8.38166ZM10.0027 10.3347C9.63497 10.3347 9.33592 10.0356 9.33592 9.66787C9.33592 9.30015 9.63497 9.0011 10.0027 9.0011C10.3704 9.0011 10.6695 9.30015 10.6695 9.66787C10.6695 10.0356 10.3704 10.3347 10.0027 10.3347Z" fill="black"/>
<path d="M3.96649 17.556C3.85647 17.7024 3.88648 17.9124 4.0365 18.0224C4.09318 18.0658 4.16319 18.0858 4.2332 18.0858C4.33655 18.0858 4.43657 18.0424 4.50325 17.9524C4.60993 17.8061 4.57993 17.596 4.43323 17.486C4.28654 17.376 4.07684 17.406 3.96649 17.556Z" fill="black"/>
<path d="M2.41238 15.425C2.3057 15.2786 2.09566 15.2416 1.94564 15.3487C1.79561 15.4587 1.76227 15.6654 1.86896 15.8151C1.93564 15.9054 2.03565 15.9551 2.14234 15.9551C2.20902 15.9551 2.27569 15.9351 2.3357 15.8921C2.4854 15.7851 2.51907 15.575 2.41238 15.425Z" fill="black"/>
<path d="M2.54112 16.1534C2.40443 16.2764 2.39109 16.4868 2.51444 16.6231C2.57779 16.6998 2.67114 16.7368 2.76449 16.7368C2.84117 16.7368 2.92118 16.7102 2.98452 16.6535C3.12121 16.5301 3.13455 16.3201 3.01119 16.1834C2.89151 16.0434 2.68147 16.0334 2.54112 16.1534Z" fill="black"/>
<path d="M3.69002 16.8698C3.55667 16.7464 3.3433 16.7564 3.21994 16.8901C3.09326 17.0265 3.10326 17.2368 3.23995 17.3635C3.30329 17.4202 3.38331 17.4502 3.46332 17.4502C3.55333 17.4502 3.64335 17.4135 3.71003 17.3435C3.83338 17.2068 3.82671 16.9968 3.69002 16.8734C3.69002 16.8698 3.69002 16.8698 3.69002 16.8698Z" fill="black"/>
<path d="M1.89276 14.6157C1.88942 14.6157 1.88942 14.6157 1.88942 14.6157C1.79941 14.4557 1.59604 14.399 1.43601 14.4923C1.27599 14.5827 1.21931 14.7857 1.31266 14.9458C1.37267 15.0521 1.48602 15.1125 1.60271 15.1125C1.65605 15.1125 1.71606 15.0991 1.76607 15.0691C1.9261 14.9791 1.98277 14.7754 1.89276 14.6157Z" fill="black"/>
<path d="M19.6523 10.708C19.659 10.708 19.6623 10.708 19.6656 10.708C19.8457 10.708 19.9924 10.5643 19.999 10.388C20.0057 10.201 19.8623 10.0476 19.679 10.0413C19.4956 10.0343 19.3389 10.178 19.3323 10.3613C19.3256 10.5447 19.4686 10.7014 19.6523 10.708Z" fill="black"/>
<path d="M0.421449 11.3318C0.604813 11.3114 0.738168 11.1481 0.718165 10.9647C0.698161 10.7814 0.534801 10.648 0.351437 10.668C0.168073 10.6847 0.0347175 10.8514 0.0547209 11.0314C0.0713903 11.2048 0.218081 11.3314 0.384776 11.3314C0.398111 11.3318 0.408113 11.3318 0.421449 11.3318Z" fill="black"/>
<path d="M0.608297 12.3126C0.788327 12.2759 0.905013 12.0992 0.865007 11.9192C0.828334 11.7392 0.651638 11.6221 0.471608 11.6621C0.291578 11.6988 0.174892 11.8759 0.214898 12.0559C0.244903 12.2126 0.384927 12.3193 0.538286 12.3193C0.561289 12.3193 0.58496 12.3193 0.608297 12.3126Z" fill="black"/>
<path d="M1.4563 13.7526C1.38296 13.5859 1.18626 13.5092 1.01623 13.5825C0.849535 13.6559 0.772855 13.8526 0.846201 14.0223C0.902877 14.1456 1.0229 14.2226 1.15292 14.2226C1.19626 14.2226 1.24293 14.2126 1.28627 14.1923C1.45264 14.1193 1.52931 13.9226 1.4563 13.7526Z" fill="black"/>
<path d="M1.11254 12.852C1.05919 12.6754 0.869161 12.5787 0.695799 12.6353C0.519103 12.692 0.42242 12.8787 0.479096 13.0557C0.525771 13.1958 0.655792 13.2855 0.795816 13.2855C0.829155 13.2855 0.865827 13.2821 0.899166 13.2721C1.07286 13.2154 1.16954 13.0251 1.11254 12.852Z" fill="black"/>
<path d="M9.82449 19.3341C9.64112 19.3304 9.48776 19.4774 9.48443 19.6604C9.4811 19.8475 9.62779 19.9972 9.81115 20.0008C9.81449 20.0008 9.81782 20.0008 9.81782 20.0008C10.0012 20.0008 10.1479 19.8571 10.1512 19.6741C10.1542 19.4907 10.0079 19.3374 9.82449 19.3341Z" fill="black"/>
<path d="M17.381 15.716C17.2676 15.8594 17.2943 16.0697 17.4377 16.1828C17.501 16.2294 17.571 16.2528 17.6444 16.2528C17.7411 16.2528 17.8411 16.2094 17.9078 16.1224C18.0211 15.9791 17.9944 15.769 17.8477 15.656C17.7011 15.543 17.4944 15.5693 17.381 15.716Z" fill="black"/>
<path d="M15.2802 17.6971C15.1301 17.8005 15.0901 18.0102 15.1968 18.1605C15.2602 18.2539 15.3635 18.3039 15.4702 18.3039C15.5369 18.3039 15.6002 18.2872 15.6602 18.2472C15.8102 18.1439 15.8502 17.9342 15.7436 17.7838C15.6402 17.6304 15.4338 17.5938 15.2802 17.6971Z" fill="black"/>
<path d="M16.0485 17.1092C15.9085 17.2292 15.8918 17.4393 16.0118 17.5793C16.0785 17.656 16.1719 17.6963 16.2652 17.6963C16.3419 17.6963 16.4186 17.6696 16.4819 17.6163C16.6219 17.4963 16.6386 17.2863 16.5186 17.1462C16.3982 17.0062 16.1885 16.9895 16.0485 17.1092Z" fill="black"/>
<path d="M18.3912 14.8151C18.2345 14.7184 18.0278 14.7684 17.9311 14.9218C17.8344 15.0785 17.8811 15.2852 18.0378 15.3819C18.0945 15.4155 18.1545 15.4319 18.2145 15.4319C18.3245 15.4319 18.4345 15.3785 18.4979 15.2748C18.5949 15.1188 18.5482 14.9118 18.3912 14.8151Z" fill="black"/>
<path d="M16.7521 16.4465C16.622 16.5795 16.6287 16.7896 16.7621 16.9166C16.8254 16.9796 16.9088 17.0096 16.9921 17.0096C17.0788 17.0096 17.1688 16.9763 17.2321 16.9062C17.3588 16.7729 17.3555 16.5629 17.2221 16.4362C17.0888 16.3095 16.8784 16.3131 16.7521 16.4465Z" fill="black"/>
<path d="M19.6225 11.0386C19.4424 11.0122 19.2724 11.1422 19.2457 11.3223C19.2191 11.5056 19.3458 11.6723 19.5291 11.699C19.5458 11.7023 19.5625 11.7023 19.5758 11.7023C19.7391 11.7023 19.8825 11.5826 19.9058 11.4159C19.9328 11.2356 19.8062 11.0652 19.6225 11.0386Z" fill="black"/>
<path d="M19.465 12.0251C19.285 11.9817 19.1049 12.0917 19.0583 12.2684C19.0149 12.4485 19.125 12.6285 19.3016 12.6752C19.3283 12.6822 19.355 12.6852 19.3817 12.6852C19.5317 12.6852 19.6684 12.5818 19.705 12.4318C19.7517 12.2521 19.6414 12.0721 19.465 12.0251Z" fill="black"/>
<path d="M5.23563 18.0232C5.07561 17.9302 4.87224 17.9799 4.77889 18.1402C4.68221 18.2969 4.73555 18.5036 4.89224 18.597C4.94559 18.6303 5.0056 18.6436 5.06227 18.6436C5.17562 18.6436 5.28564 18.587 5.34899 18.4803C5.44567 18.3233 5.39266 18.1199 5.23563 18.0232Z" fill="black"/>
<path d="M19.2052 12.9928C19.0319 12.9298 18.8385 13.0195 18.7785 13.1928C18.7152 13.3665 18.8018 13.5566 18.9752 13.6196C19.0119 13.6329 19.0519 13.6399 19.0886 13.6399C19.2253 13.6399 19.3553 13.5566 19.4019 13.4199C19.4656 13.2459 19.3786 13.0562 19.2052 12.9928Z" fill="black"/>
<path d="M18.8451 13.9262C18.6818 13.8465 18.4784 13.9128 18.3984 14.0795C18.3184 14.2462 18.3884 14.4466 18.5518 14.5263C18.5984 14.5496 18.6484 14.56 18.6985 14.56C18.8218 14.56 18.9418 14.4899 18.9985 14.3729C19.0785 14.2059 19.0118 14.0062 18.8451 13.9262Z" fill="black"/>
<path d="M8.86105 19.2664C8.67769 19.243 8.51433 19.3727 8.49099 19.5564C8.46765 19.7398 8.59767 19.9065 8.78104 19.9262V19.9298C8.79437 19.9298 8.80771 19.9298 8.82105 19.9298C8.98774 19.9298 9.1311 19.8065 9.1511 19.6361C9.17444 19.4531 9.04408 19.2894 8.86105 19.2664Z" fill="black"/>
<path d="M6.98262 18.837C6.80926 18.7767 6.61923 18.867 6.55922 19.0437C6.49921 19.2171 6.59256 19.4071 6.76592 19.4671C6.80259 19.4771 6.83927 19.4838 6.87594 19.4838C7.01263 19.4838 7.14265 19.3971 7.18932 19.2604C7.24933 19.0837 7.15599 18.8937 6.98262 18.837Z" fill="black"/>
<path d="M7.91006 19.1C7.73003 19.06 7.55333 19.17 7.50999 19.35C7.46999 19.5301 7.58334 19.7101 7.76003 19.7501C7.78671 19.7568 7.81004 19.7568 7.83671 19.7568C7.98674 19.7568 8.12676 19.6534 8.1601 19.5001C8.20311 19.32 8.09009 19.14 7.91006 19.1Z" fill="black"/>
<path d="M6.08966 18.4759C5.91963 18.3959 5.72293 18.4689 5.64625 18.6356C5.56958 18.8023 5.63959 19.0026 5.80628 19.079C5.85296 19.0993 5.89963 19.109 5.9463 19.109C6.07299 19.109 6.19301 19.039 6.24969 18.916C6.32637 18.7493 6.25636 18.5522 6.08966 18.4759Z" fill="black"/>
<path d="M11.743 19.1736C11.5629 19.207 11.4429 19.3837 11.4763 19.5637C11.5063 19.7237 11.6496 19.8341 11.8063 19.8341C11.8263 19.8341 11.8463 19.8341 11.8663 19.8304C12.0464 19.7941 12.1664 19.6204 12.133 19.4404C12.0997 19.257 11.923 19.1403 11.743 19.1736Z" fill="black"/>
<path d="M12.6811 18.946C12.5044 18.9957 12.4044 19.1827 12.4577 19.3591C12.501 19.5028 12.6344 19.5961 12.7778 19.5961C12.8078 19.5961 12.8411 19.5924 12.8744 19.5828C13.0511 19.5294 13.1512 19.3424 13.0978 19.166C13.0441 18.9927 12.8578 18.8927 12.6811 18.946Z" fill="black"/>
<path d="M13.5901 18.6191C13.4201 18.6891 13.3401 18.8858 13.4101 19.0561C13.4634 19.1828 13.5868 19.2592 13.7168 19.2592C13.7601 19.2592 13.8035 19.2525 13.8468 19.2362C14.0169 19.1625 14.0969 18.9691 14.0269 18.7991C13.9532 18.6291 13.7601 18.5491 13.5901 18.6191Z" fill="black"/>
<path d="M10.7872 19.3036C10.6038 19.3206 10.4671 19.4803 10.4838 19.6637C10.4971 19.8374 10.6438 19.9704 10.8172 19.9704C10.8239 19.9704 10.8339 19.9704 10.8439 19.9704V19.9671C11.0272 19.9537 11.1639 19.7937 11.1472 19.6103C11.1339 19.4273 10.9709 19.2903 10.7872 19.3036Z" fill="black"/>
<path d="M14.4604 18.204C14.297 18.2907 14.237 18.494 14.327 18.6544C14.387 18.7677 14.5004 18.8307 14.6204 18.8307C14.6737 18.8307 14.7271 18.8174 14.7771 18.7874C14.9405 18.7007 15.0005 18.4974 14.9105 18.3373C14.8241 18.174 14.6204 18.114 14.4604 18.204Z" fill="black"/>
</svg>
